<?xml version="1.0" encoding="UTF-8" standalone="no"?>
<!DOCTYPE svg PUBLIC "-//W3C//DTD SVG 1.1//EN" "http://www.w3.org/Graphics/SVG/1.1/DTD/svg11.dtd">
<svg width="100%" height="100%" viewBox="0 0 3508 4961" version="1.1" xmlns="http://www.w3.org/2000/svg" xmlns:xlink="http://www.w3.org/1999/xlink" xml:space="preserve" xmlns:serif="http://www.serif.com/" style="fill-rule:evenodd;clip-rule:evenodd;stroke-linecap:round;stroke-linejoin:round;stroke-miterlimit:1.5;">
    <g transform="matrix(1,0,0,1,-7488.188976,-0)">
        <g id="Prancheta3" transform="matrix(1,0,0,1,0.094488,0)">
            <rect x="7488.094" y="0" width="3507.874" height="4960.63" style="fill:none;"/>
            <g>
                <g transform="matrix(1,0,0,1,-34.957102,244.600664)">
                    <g transform="matrix(1,0,0,1,490.918182,-7027.895545)">
                        <path d="M7568.546,9066.707C7464.532,9588.549 7409.424,10575.332 8068.408,10677.525C8425.511,10492.235 9060.993,10698.948 9060.993,10698.948C9060.993,10698.948 9626.049,10616.827 9809.041,10513.284C9974.773,10419.508 9947.201,10215.519 9959.394,10041.985C9971.586,9868.451 9712.999,8767.899 9496.588,8734.068C9039.796,8662.659 7833.087,8176.123 7568.546,9066.707Z" style="fill:url(#_Linear1);"/>
                    </g>
                    <g transform="matrix(1,0,0,1,455.96108,-6783.294881)">
                        <path d="M7436.561,9092.019L7345.525,8383.125C7262.857,8268.458 7209.845,8144.892 7318.15,7977.177C7318.15,7977.177 7568.869,7872.938 7702.907,7865.087C7959.334,7850.067 8594.887,7888.019 8940.944,8013.115C9116.003,8082.778 9291.062,8086.682 9466.12,8029.03C9639.631,7981.729 9780.651,7999.41 9879.895,8100.644C10066.892,8124.513 10022.762,8370.264 9943.552,8649.692L9891.831,9206.664L10162.376,9871.123C10239.93,10239.451 10169.704,10408.598 10003.231,10448.02C9383.225,10663.544 9044.384,10469.839 8566.956,10384.363C8516.205,10411.898 8316.699,10358.92 8225.607,10444.273C8015.11,10641.507 7799.412,10669.981 7691.663,10360.491C7566.39,10311.986 7485.382,10231.288 7476.819,10097.903L7482.109,9638.597L7436.561,9092.019ZM7334.708,8094.344C7282.044,8144.32 7345.483,8208.999 7390.781,8290.623C7390.781,8290.623 7459.003,8281.45 7466.375,8306.442C7635.169,8878.695 7690.993,10569.596 7950.619,10431.907C8181.514,10309.454 8299.727,10251.512 8366.812,10276.041C8366.812,10276.041 9648.188,10407.918 9921.173,10351.539C10058.973,10323.079 10024.357,10077.096 10004.723,9937.764C9984.167,9791.882 9797.836,9476.246 9797.836,9476.246C9797.836,9476.246 9720.341,9253.852 9718.264,9138.065C9715.612,8990.194 9781.922,8589.018 9781.922,8589.018C9854.394,8469.816 9878.462,8366.749 9869.451,8274.708C9809.704,8283.353 9776.865,8253.131 9766.007,8191.158C9728.754,8149.481 9680.31,8137.645 9626.756,8139.436C9078.982,8240.387 9031.108,8125.864 8842.971,8071.8C8500.414,7972.941 7964.265,7909.66 7721.481,7936.397C7571.353,7952.93 7399.691,8032.675 7334.708,8094.344Z" style="fill:rgb(159,255,118);fill-opacity:0.59;"/>
                    </g>
                    <g transform="matrix(1,0,0,1,455.96108,-6783.294881)">
                        <path d="M7320.237,7971.951C7630.77,7842.955 7986.36,7819.095 8369.241,7858.912C8614.718,7656.75 8850.257,7807.854 9083.649,8035.253C9292.56,8131.833 9520.223,7989.721 9664.521,8004.957C9764.31,8015.493 9805.141,8031.039 9856.617,8092.249C9862.374,8099.093 9901.911,8086.477 9921.408,8095.966C10056.402,8161.666 10041.925,8459.391 9951.791,8618.536C9979.206,8627.103 9700.863,8980.004 9719.733,9136.59C9733.36,9249.668 9994.168,9518.754 10003.389,9675.465C10010.5,9796.302 10204.999,9947.877 10204.999,9947.877C10274.531,10064.341 10247.005,10150.94 10159.783,10219.172L9929.183,10327.689C9848.756,10648.615 9513.402,10597.773 9142.43,10494.987C8839.279,10323.373 8530.716,10276.239 8215.508,10381.948C8203.149,10534.149 7947.512,10637.978 7837.64,10582.687C7720.832,10523.907 7538.799,10242.089 7514.665,10029.266L7379.018,8401.5C7265.854,8295.446 7216.361,8138.295 7320.237,7971.951ZM8651.111,8166.379C8417.586,8063.354 7824.794,8007.204 7671.994,8140.556C7599.088,8204.182 7808.567,8446.716 7808.567,8446.716C7876.154,8580.119 7860.05,8703.676 7722.657,8812.963C7480.467,8772.598 7877.854,10312.308 7853.794,10063.91C7846.984,9993.596 8034.169,9807.474 8145.117,9782.559C8616.466,9676.708 8993.231,9775.27 9391.116,10133.262C9708.769,10419.066 10039.635,10028.888 9843.273,9979.528C9667.968,9813.429 9501.162,9646.857 9544.85,9468.591C9467.31,9442.977 9408.343,9361.644 9354.944,9263.61C9307.569,9142.357 9373.682,8964.36 9567.457,8722.532C9641.037,8596.955 9620.492,8485.526 9540.328,8442.195C9460.164,8398.863 9226.077,8526.859 9086.476,8462.544C8911.006,8381.704 8811.695,8237.224 8651.111,8166.379Z" style="fill:url(#_Linear2);"/>
                    </g>
                    <g transform="matrix(1,0,0,1,-26.438748,-252.920355)">
                        <g>
                            <g transform="matrix(0.692276,0.721633,-0.721633,0.692276,9890.280346,-10786.40787)">
                                <path d="M9357.072,9019.865L9371.174,9033.968L9349.606,9055.536L9371.174,9077.105L9357.072,9091.207L9335.503,9069.639L9313.935,9091.207L9299.832,9077.105L9321.401,9055.536L9299.832,9033.968L9313.935,9019.865L9335.503,9041.434L9357.072,9019.865Z" style="fill:rgb(185,239,163);"/>
                            </g>
                            <g transform="matrix(0.379672,0.395772,-0.395772,0.379672,10116.251494,-3819.482415)">
                                <path d="M9357.072,9019.865L9371.174,9033.968L9349.606,9055.536L9371.174,9077.105L9357.072,9091.207L9335.503,9069.639L9313.935,9091.207L9299.832,9077.105L9321.401,9055.536L9299.832,9033.968L9313.935,9019.865L9335.503,9041.434L9357.072,9019.865Z" style="fill:rgb(65,66,64);"/>
                            </g>
                            <g transform="matrix(0.677996,0.706747,-0.706747,0.677996,8442.308672,-10073.527229)">
                                <path d="M9357.072,9019.865L9371.174,9033.968L9349.606,9055.536L9371.174,9077.105L9357.072,9091.207L9335.503,9069.639L9313.935,9091.207L9299.832,9077.105L9321.401,9055.536L9299.832,9033.968L9313.935,9019.865L9335.503,9041.434L9357.072,9019.865Z" style="fill:rgb(10,22,10);"/>
                            </g>
                            <g transform="matrix(1,0,0,1,458.068806,-6775.751369)">
                                <path d="M8101.006,9555.584L8161.664,9618.968L8101.006,9682.352L8040.348,9618.968L8101.006,9555.584Z" style="fill:rgb(185,239,163);"/>
                            </g>
                            <g transform="matrix(1,0,0,1,495.423486,-6769.891795)">
                                <path d="M9226.758,8715.067L9282.154,8771.772L9226.758,8835.456L9171.361,8771.772L9226.758,8715.067Z" style="fill:rgb(185,239,163);"/>
                            </g>
                            <g transform="matrix(1,0,0,1,447.027878,-6784.969857)">
                                <path d="M9410.723,8760.965L9426.635,8777.436L9410.723,8793.906L9394.81,8777.436L9410.723,8760.965Z" style="fill:rgb(185,239,163);"/>
                            </g>
                            <g transform="matrix(1,0,0,1,-687.777374,-6817.911037)">
                                <path d="M9410.723,8760.965L9426.635,8777.436L9410.723,8793.906L9394.81,8777.436L9410.723,8760.965Z" style="fill:rgb(185,239,163);"/>
                            </g>
                            <g transform="matrix(1,0,0,1,490.894689,-6772.536183)">
                                <path d="M9683.897,9436.464L9739.369,9490.987L9683.897,9545.511L9628.426,9490.987L9683.897,9436.464Z" style="fill:rgb(65,66,64);"/>
                            </g>
                            <g transform="matrix(1,0,0,1,-1465.531467,-7630.503799)">
                                <path d="M9683.897,9436.464L9739.369,9490.987L9683.897,9545.511L9628.426,9490.987L9683.897,9436.464Z" style="fill:rgb(65,66,64);"/>
                            </g>
                        </g>
                        <g>
                            <g transform="matrix(0.425383,0,0,0.425383,6631.032402,-1536.209852)">
                                <ellipse cx="7899.657" cy="9461.699" rx="36.291" ry="36.116" style="fill:rgb(65,66,64);"/>
                            </g>
                            <g transform="matrix(0.260661,0,0,0.260661,6641.1532,507.236684)">
                                <ellipse cx="7899.657" cy="9461.699" rx="36.291" ry="36.116" style="fill:rgb(185,239,163);"/>
                            </g>
                            <g transform="matrix(0.425383,0,0,0.425383,5035.782026,-1102.880817)">
                                <ellipse cx="7899.657" cy="9461.699" rx="36.291" ry="36.116" style="fill:rgb(185,239,163);"/>
                            </g>
                            <g transform="matrix(0.425383,0,0,0.425383,5051.219647,-1795.078794)">
                                <ellipse cx="7899.657" cy="9461.699" rx="36.291" ry="36.116" style="fill:rgb(10,22,10);"/>
                            </g>
                            <g transform="matrix(0.425383,0,0,0.425383,6229.28727,-2044.669392)">
                                <ellipse cx="7899.657" cy="9461.699" rx="36.291" ry="36.116" style="fill:rgb(10,22,10);"/>
                            </g>
                            <g transform="matrix(0.178272,0,0,0.178272,7208.928196,878.281984)">
                                <ellipse cx="7899.657" cy="9461.699" rx="36.291" ry="36.116" style="fill:rgb(185,239,163);"/>
                            </g>
                            <g transform="matrix(0.178272,0,0,0.178272,8431.626847,718.361076)">
                                <ellipse cx="7899.657" cy="9461.699" rx="36.291" ry="36.116" style="fill:rgb(185,239,163);"/>
                            </g>
                        </g>
                    </g>
                </g>
                <g id="Corpo" transform="matrix(1,0,0,1,-28.594153,247.782139)">
                    <g transform="matrix(1,0,0,1,455.96108,-6783.294881)">
                        <path d="M8434.131,9382.103C8378.546,9626.277 8352.554,9904.249 8410.677,9985.022C8452.25,10042.794 8594.262,9971.144 8596.649,9944.707L8590.058,9855.704C8437.807,9774.932 8446.26,9580.784 8434.131,9382.103Z" style="fill:rgb(125,73,23);"/>
                        <clipPath id="_clip3">
                            <path d="M8434.131,9382.103C8378.546,9626.277 8352.554,9904.249 8410.677,9985.022C8452.25,10042.794 8594.262,9971.144 8596.649,9944.707L8590.058,9855.704C8437.807,9774.932 8446.26,9580.784 8434.131,9382.103Z"/>
                        </clipPath>
                        <g clip-path="url(#_clip3)">
                            <g transform="matrix(1,0,0,1,44.951306,-287.637623)">
                                <path d="M8381.526,9600.093C8368.027,9594.094 8347.993,9990.145 8421.993,10100.605C8464.688,10164.336 8604.329,10162.756 8592.38,10143.202L8381.526,9600.093Z" style="fill:rgb(84,48,14);fill-opacity:0.5;"/>
                            </g>
                        </g>
                    </g>
                    <g transform="matrix(1.105154,-0.202386,0.191416,1.045248,-2260.133868,-5363.879946)">
                        <path d="M9137.291,9266.51L9235.741,9224.753L9288.532,9255.658C9281.192,9278.83 9255.201,9267.025 9228.733,9263.61L9277.203,9281.983L9230.882,9401.231C9217.256,9401.154 9161.331,9389.055 9161.331,9389.055C9161.331,9389.055 9157.516,9306.369 9137.291,9266.51Z" style="fill:rgb(125,73,23);"/>
                        <clipPath id="_clip4">
                            <path d="M9137.291,9266.51L9235.741,9224.753L9288.532,9255.658C9281.192,9278.83 9255.201,9267.025 9228.733,9263.61L9277.203,9281.983L9230.882,9401.231C9217.256,9401.154 9161.331,9389.055 9161.331,9389.055C9161.331,9389.055 9157.516,9306.369 9137.291,9266.51Z"/>
                        </clipPath>
                        <g clip-path="url(#_clip4)">
                            <g transform="matrix(0.8893,-0.03861,0.036517,0.940269,679.36237,676.263347)">
                                <path d="M9198.553,9538.355C9201.932,9524.559 9207.422,9510.113 9207.422,9510.113C9207.422,9510.113 9221.578,9513.053 9236.15,9516.163L9202.56,9505.376L9198.553,9538.355Z" style="fill:rgb(84,48,14);"/>
                            </g>
                            <g transform="matrix(0.87549,0.169517,-0.160328,0.925667,2674.656331,-1098.737455)">
                                <path d="M9231.105,9536.267L9232.222,9612.199L9234.879,9579.28L9231.105,9536.267Z" style="fill:rgb(84,48,14);"/>
                            </g>
                            <g transform="matrix(0.87549,0.169517,-0.160328,0.925667,2662.469957,-1080.685536)">
                                <path d="M9127.182,9486.695L9148.7,9471.955C9190.404,9526.067 9209.294,9581.023 9218.826,9636.326L9193.813,9657.319L9127.182,9486.695Z" style="fill:rgb(84,48,14);fill-opacity:0.42;"/>
                            </g>
                        </g>
                    </g>
                    <g transform="matrix(1,0,0,1,455.96108,-6783.294881)">
                        <path d="M8637.266,9100.957L8632.456,9153.204L8555.04,9236.601C8618.56,9274.978 8766.444,9214.988 8867.323,9100.957L8852.639,9002.754L8637.266,9100.957Z" style="fill:rgb(125,73,23);"/>
                        <clipPath id="_clip5">
                            <path d="M8637.266,9100.957L8632.456,9153.204L8555.04,9236.601C8618.56,9274.978 8766.444,9214.988 8867.323,9100.957L8852.639,9002.754L8637.266,9100.957Z"/>
                        </clipPath>
                        <g clip-path="url(#_clip5)">
                            <g transform="matrix(1,0,0,1,28.594153,-247.782139)">
                                <path d="M8611.326,9351.15C8617.104,9407.383 8681.265,9422.404 8764.349,9424.066L8854.981,9347.666L8846.462,9294.846C8705.4,9246.672 8659.975,9324.91 8611.326,9351.15Z" style="fill:rgb(84,48,14);fill-opacity:0.77;"/>
                            </g>
                        </g>
                    </g>
                    <g transform="matrix(1,0,0,1,455.96108,-6783.294881)">
                        <path d="M8814.665,9015.828C8832.082,9058.785 8896.248,9074.313 8935.078,9082.231C8949.737,9080.135 8957.626,9060.763 8958.658,9037.253C8957.568,9042.704 8990.169,9036.025 8978.168,9010.81C8979.036,9012.762 8996.308,9006.592 8999.308,8992.631C9000.256,8988.221 8995.48,8969.64 8995.48,8969.64C8995.48,8969.64 9003.173,8948.009 9014.015,8951.882C9022.602,8956.401 9061.156,8934.892 9061.311,8924.579C9061.734,8896.409 9035.975,8825.66 9034.053,8825.66C9044.027,8826.768 9100.956,8704.543 9047.308,8617.093L8997.185,8559.452C8958.948,8628.475 8917.737,8689.319 8867.323,8724.858C8887.553,8755.262 8889.919,8780.794 8867.323,8799.519C8945.511,8872.453 8899.99,8952.627 8814.665,9015.828Z" style="fill:rgb(125,73,23);"/>
                        <clipPath id="_clip6">
                            <path d="M8814.665,9015.828C8832.082,9058.785 8896.248,9074.313 8935.078,9082.231C8949.737,9080.135 8957.626,9060.763 8958.658,9037.253C8957.568,9042.704 8990.169,9036.025 8978.168,9010.81C8979.036,9012.762 8996.308,9006.592 8999.308,8992.631C9000.256,8988.221 8995.48,8969.64 8995.48,8969.64C8995.48,8969.64 9003.173,8948.009 9014.015,8951.882C9022.602,8956.401 9061.156,8934.892 9061.311,8924.579C9061.734,8896.409 9035.975,8825.66 9034.053,8825.66C9044.027,8826.768 9100.956,8704.543 9047.308,8617.093L8997.185,8559.452C8958.948,8628.475 8917.737,8689.319 8867.323,8724.858C8887.553,8755.262 8889.919,8780.794 8867.323,8799.519C8945.511,8872.453 8899.99,8952.627 8814.665,9015.828Z"/>
                        </clipPath>
                        <g clip-path="url(#_clip6)">
                            <g transform="matrix(1,0,0,1,-427.366927,6535.512743)">
                                <g transform="matrix(0.964655,-0.263515,0.263515,0.964655,-1598.907528,-4081.738113)">
                                    <path d="M8958.086,8984.134C8982.65,8982.069 9002.724,8981.331 9014.539,9016.541" style="fill:none;stroke:black;stroke-width:10.42px;"/>
                                </g>
                                <g transform="matrix(1,0,0,1,443.119561,-6744.211999)">
                                    <path d="M8930.135,9194.248C8934.403,9204.52 8948.979,9215.441 8963.669,9219.757" style="fill:none;stroke:black;stroke-width:10.42px;"/>
                                </g>
                                <g transform="matrix(1.498254,0.511585,-0.64435,1.887074,1796.046667,-19380.731408)">
                                    <ellipse cx="8988.074" cy="9036.268" rx="9.269" ry="15.476"/>
                                </g>
                            </g>
                            <g transform="matrix(1,0,0,1,28.594153,-247.782139)">
                                <path d="M8848.535,8935.216C8876.029,8970.22 8891.272,9006.517 8882.858,9048.838C8881.542,9055.46 8874.895,9064.048 8879.678,9068.624C8920.763,9107.928 8943.211,9195.874 8894.553,9231.376C8858.198,9257.902 8794.328,9301.769 8803.107,9320.635L8767.888,9263.61L8789.698,8945.439L8848.535,8935.216Z" style="fill:rgb(84,48,14);fill-opacity:0.75;"/>
                            </g>
                        </g>
                    </g>
                    <g id="Celular" transform="matrix(0.991448,-0.130503,0.130503,0.991448,-230.698325,1056.588751)">
                        <g transform="matrix(1,0,0,1,455.96108,-6783.294881)">
                            <path d="M9466.888,9375.879C9466.888,9375.879 9466.888,9390.582 9466.888,9396.101C9466.888,9397.466 9466.678,9398.824 9466.266,9400.125C9459.23,9422.353 9394.59,9626.577 9380.633,9670.674C9379.056,9675.656 9374.432,9679.042 9369.206,9679.042C9366.194,9679.042 9363.565,9679.042 9363.565,9679.042L9466.888,9375.879Z" style="fill:rgb(16,14,36);"/>
                        </g>
                        <g transform="matrix(1,0,0,1,455.96108,-6783.294881)">
                            <path d="M9320.369,9354.446C9322.308,9349.017 9327.906,9345.802 9333.573,9346.865C9359.123,9351.656 9427.632,9364.501 9456.929,9369.994C9460.37,9370.639 9463.369,9372.731 9465.163,9375.739C9466.957,9378.746 9467.374,9382.379 9466.307,9385.714C9449.945,9436.863 9390.752,9621.902 9375.095,9670.847C9374.104,9673.945 9371.876,9676.496 9368.94,9677.896C9366.004,9679.295 9362.619,9679.419 9359.589,9678.237C9331.661,9667.35 9261.364,9639.946 9234.407,9629.438C9228.42,9627.104 9225.375,9620.43 9227.536,9614.378C9243.665,9569.218 9305.251,9396.778 9320.369,9354.446Z" style="fill:rgb(6,7,6);"/>
                        </g>
                        <g transform="matrix(0.931892,0,0,0.94,1093.212516,-6214.038239)">
                            <path d="M9320.135,9355.102C9322.207,9349.301 9328.236,9345.864 9334.335,9347.008C9360.185,9351.855 9426.503,9364.289 9455.999,9369.82C9459.682,9370.51 9462.891,9372.732 9464.813,9375.922C9466.734,9379.112 9467.186,9382.966 9466.053,9386.508C9449.436,9438.453 9391.337,9620.075 9375.364,9670.005C9374.306,9673.315 9371.91,9676.041 9368.748,9677.534C9365.585,9679.028 9361.94,9679.154 9358.681,9677.883C9330.415,9666.864 9262.279,9640.303 9235.115,9629.713C9228.723,9627.222 9225.472,9620.157 9227.765,9613.738C9244.154,9567.849 9304.699,9398.324 9320.135,9355.102Z" style="fill:url(#_Linear7);"/>
                        </g>
                        <g transform="matrix(0.991448,0.130503,-0.130503,0.991448,1764.598976,-7925.157142)">
                            <path d="M9407.566,9647.299L9379.026,9616.68C9372.043,9610.395 9385.031,9527.275 9385.031,9527.275C9381.971,9530.334 9337.719,9474.829 9373.021,9459.887L9434.404,9502.588L9443.745,9512.83L9407.566,9647.299Z" style="fill:rgb(68,214,44);fill-opacity:0.48;"/>
                        </g>
                    </g>
                    <g transform="matrix(1.002561,0,0,1.003777,434.818689,-6822.514901)">
                        <path d="M8885.099,9120.11L8980.66,9108.186C9128.243,9172.089 9200.221,9270.038 9225.616,9458.454C9262.938,9475.762 9326.297,9532.534 9361.709,9600.96L9442.466,9394.341C9442.466,9394.341 9413.796,9379.64 9410.884,9365.739C9406.879,9346.62 9418.435,9279.624 9418.435,9279.624C9398.383,9265.002 9381.174,9233.405 9398.396,9214.399L9467.752,9264.154L9481.739,9185.213L9523.788,9247.711C9541.007,9256.396 9508.718,9423.233 9508.718,9423.233C9554.204,9448.251 9506.595,10018.943 9340.779,9949.208C9168.852,9876.902 8864.019,9558.155 8878.83,9270.905C8874.929,9235.052 8884.662,9194.96 8885.099,9120.11Z" style="fill:rgb(125,73,23);"/>
                        <clipPath id="_clip8">
                            <path d="M8885.099,9120.11L8980.66,9108.186C9128.243,9172.089 9200.221,9270.038 9225.616,9458.454C9262.938,9475.762 9326.297,9532.534 9361.709,9600.96L9442.466,9394.341C9442.466,9394.341 9413.796,9379.64 9410.884,9365.739C9406.879,9346.62 9418.435,9279.624 9418.435,9279.624C9398.383,9265.002 9381.174,9233.405 9398.396,9214.399L9467.752,9264.154L9481.739,9185.213L9523.788,9247.711C9541.007,9256.396 9508.718,9423.233 9508.718,9423.233C9554.204,9448.251 9506.595,10018.943 9340.779,9949.208C9168.852,9876.902 8864.019,9558.155 8878.83,9270.905C8874.929,9235.052 8884.662,9194.96 8885.099,9120.11Z"/>
                        </clipPath>
                        <g clip-path="url(#_clip8)">
                            <g transform="matrix(1.411327,0,0,1.406896,-3866.568774,-4129.063909)">
                                <path d="M9441.417,9507.682L9468.665,9552.121L9468.665,9573.713L9464.549,9551.94L9441.417,9507.682Z" style="fill:rgb(84,48,14);"/>
                            </g>
                            <g transform="matrix(0.997446,0,0,0.996237,49.60951,-207.77733)">
                                <path d="M9457.779,9422.525L9463.827,9432.53C9455.814,9449.154 9450.484,9479.192 9446.047,9513.696L9439.913,9503.282L9457.779,9422.525Z" style="fill:rgb(84,48,14);"/>
                            </g>
                        </g>
                    </g>
                </g>
                <g id="Cabelo" transform="matrix(1,0,0,1,-34.957102,244.600664)">
                    <g transform="matrix(1,0,0,1,455.96108,-6783.294881)">
                        <path d="M8867.323,8724.858C8897.586,8743.362 8905.978,8793.212 8879.333,8806.858C8953.974,8810.928 8957.541,9026.344 8857.423,9008.768C8878.295,9130.695 8751.598,9110.725 8725.218,9078.483C8687.492,9114.226 8643.793,9112.93 8596.101,9086.88C8578.277,9158.456 8453.315,9173.041 8402.163,9131.554C8362.571,9167.175 8247.123,9101.225 8309.778,9030.819C8224.518,9010.943 8173.606,8929.381 8206.006,8860.006C8192.236,8830.099 8225.321,8785.381 8255.936,8796.353C8145.953,8741.776 8168.294,8638.932 8244.256,8616.781C8204.595,8502.992 8281.173,8447.677 8385.87,8440.128C8423.261,8338.645 8488.243,8306.95 8578.582,8339.392C8599.844,8311.035 8630.608,8306.432 8670.558,8324.793C8677.672,8275.758 8752.889,8265.988 8773.629,8297.93C8898.226,8291.49 8953.584,8356.41 8947.362,8462.1C8960.399,8516.427 8905.945,8597.492 8825.546,8698.537C8825.546,8698.537 8853.281,8716.271 8867.323,8724.858Z" style="fill:rgb(13,12,30);"/>
                        <clipPath id="_clip9">
                            <path d="M8867.323,8724.858C8897.586,8743.362 8905.978,8793.212 8879.333,8806.858C8953.974,8810.928 8957.541,9026.344 8857.423,9008.768C8878.295,9130.695 8751.598,9110.725 8725.218,9078.483C8687.492,9114.226 8643.793,9112.93 8596.101,9086.88C8578.277,9158.456 8453.315,9173.041 8402.163,9131.554C8362.571,9167.175 8247.123,9101.225 8309.778,9030.819C8224.518,9010.943 8173.606,8929.381 8206.006,8860.006C8192.236,8830.099 8225.321,8785.381 8255.936,8796.353C8145.953,8741.776 8168.294,8638.932 8244.256,8616.781C8204.595,8502.992 8281.173,8447.677 8385.87,8440.128C8423.261,8338.645 8488.243,8306.95 8578.582,8339.392C8599.844,8311.035 8630.608,8306.432 8670.558,8324.793C8677.672,8275.758 8752.889,8265.988 8773.629,8297.93C8898.226,8291.49 8953.584,8356.41 8947.362,8462.1C8960.399,8516.427 8905.945,8597.492 8825.546,8698.537C8825.546,8698.537 8853.281,8716.271 8867.323,8724.858Z"/>
                        </clipPath>
                        <g clip-path="url(#_clip9)">
                            <g transform="matrix(1,0,0,1,34.957102,-244.600664)">
                                <path d="M8580.421,9345.345C8557.808,9424.44 8452.447,9425.959 8342.792,9423.452L8212.445,9312.274L8089.766,9109.085L8168.919,9079.279C8163.033,9122.438 8163.708,9165.105 8274.211,9180.879C8300.727,9282.75 8371.209,9273.894 8510.4,9197.283L8510.413,9197.159C8510.447,9197.179 8510.48,9197.2 8510.514,9197.22C8510.551,9197.2 8510.588,9197.179 8510.625,9197.159L8511.018,9197.522C8573.919,9234.975 8648.362,9232.982 8677.153,9158.755C8719.855,9179.297 8728.51,9168.63 8728.269,9149.809C8826.223,9145.9 8879.933,9019.335 8849.547,8961.588L8908.029,9033.289C8943.194,9192.23 8927.252,9317.873 8775.847,9354.301C8709.527,9383.892 8651.804,9384.922 8601.841,9360.179C8594.194,9354.762 8587.053,9349.85 8580.421,9345.345Z" style="fill:rgb(8,8,18);"/>
                            </g>
                        </g>
                    </g>
                    <g transform="matrix(1.109934,0,0,1.078494,-590.324931,-7499.872319)">
                        <path d="M9054.009,8613.995C9052.091,8611.467 9050.653,8609.042 9048.457,8606.062C9048.457,8606.062 9074.738,8578.965 9087.994,8582.852C9101.249,8586.739 9117.893,8642.651 9117.893,8642.651C9107.591,8625.582 9096.321,8610.448 9079.622,8606.174L9065.251,8614.026C9089.024,8617.627 9111.075,8642.175 9113.058,8657.259C9114.25,8666.323 9109.902,8678.541 9098.706,8680.455C9076.067,8680.795 9087.444,8654.731 9088.538,8652.332C9086.002,8658.123 9091.38,8677.041 9099.852,8671.567C9114.295,8663.43 9093.869,8622.755 9062.682,8615.43L9057.638,8618.186C9056.289,8616.815 9055.209,8615.55 9054.256,8614.317C9053.609,8614.298 9052.959,8614.294 9052.305,8614.305C9052.872,8614.187 9053.441,8614.084 9054.009,8613.995ZM9088.538,8652.332C9088.565,8652.272 9088.592,8652.213 9088.62,8652.155C9088.62,8652.155 9088.591,8652.216 9088.538,8652.332Z" style="fill:rgb(13,12,30);"/>
                    </g>
                </g>
                <g id="Roupas" transform="matrix(1,0,0,1,-34.957102,244.600664)">
                    <g transform="matrix(1,0,0,1,455.96108,-6783.294881)">
                        <path d="M8555.04,9236.822L8433.91,9382.103C8437.347,9705.84 8489.799,9846.064 8596.649,9859.561L8596.649,10037.491C8769.972,10017.413 8948.835,10052.725 9127.159,10082.658C9154.94,9987.843 9169.973,9910.727 9149.058,9820.781C8929.302,9579.799 8868.471,9389.71 8913.755,9114.296L8873.686,9103.584C8873.686,9103.584 8728.647,9212.213 8676.31,9232.636C8634.586,9248.917 8555.04,9236.822 8555.04,9236.822Z" style="fill:rgb(233,233,233);"/>
                        <clipPath id="_clip10">
                            <path d="M8555.04,9236.822L8433.91,9382.103C8437.347,9705.84 8489.799,9846.064 8596.649,9859.561L8596.649,10037.491C8769.972,10017.413 8948.835,10052.725 9127.159,10082.658C9154.94,9987.843 9169.973,9910.727 9149.058,9820.781C8929.302,9579.799 8868.471,9389.71 8913.755,9114.296L8873.686,9103.584C8873.686,9103.584 8728.647,9212.213 8676.31,9232.636C8634.586,9248.917 8555.04,9236.822 8555.04,9236.822Z"/>
                        </clipPath>
                        <g clip-path="url(#_clip10)">
                            <g transform="matrix(1,0,0,1,34.957102,-244.600664)">
                                <path d="M8904.957,9747.548C8994.921,9983.202 9002.606,10182.768 8849.735,10311.915L9130.417,10334.833L9172.536,10084.46L8904.957,9747.548Z" style="fill:rgb(201,201,201);"/>
                            </g>
                        </g>
                    </g>
                    <g transform="matrix(1,0,0,1,455.96108,-6783.294881)">
                        <path d="M8949.29,8466.771L9014.286,8540.587C8976.162,8614.328 8941.059,8688.9 8876.666,8732.529L8824.655,8698.414C8875.845,8626.319 8918.036,8553.818 8949.29,8466.771Z" style="fill:rgb(233,233,233);"/>
                        <clipPath id="_clip11">
                            <path d="M8949.29,8466.771L9014.286,8540.587C8976.162,8614.328 8941.059,8688.9 8876.666,8732.529L8824.655,8698.414C8875.845,8626.319 8918.036,8553.818 8949.29,8466.771Z"/>
                        </clipPath>
                        <g clip-path="url(#_clip11)">
                            <g transform="matrix(1,0,0,1,20.998925,-238.459066)">
                                <path d="M8923.695,8700.491L8905.267,8748.873C8936.078,8753.284 8965.455,8768.451 8993.288,8795.195L9005.243,8780.678L8923.695,8700.491Z" style="fill:rgb(201,201,201);"/>
                            </g>
                        </g>
                    </g>
                    <g transform="matrix(1,0,0,1,455.96108,-6783.294881)">
                        <path d="M8596.649,10034.891L8523.314,10096.208L8513.095,10132.707C8420.841,10303.71 8406.797,10455.162 8454.697,10591.127C8763.592,10409.035 9052.178,10240.963 9187.586,10268.481L9107.289,10173.585L9130.648,10145.846L9099.99,10140.006L9132.108,10082.658C8959.132,10046.532 8781.305,10028.191 8596.649,10034.891Z" style="fill:rgb(16,26,17);"/>
                        <clipPath id="_clip12">
                            <path d="M8596.649,10034.891L8523.314,10096.208L8513.095,10132.707C8420.841,10303.71 8406.797,10455.162 8454.697,10591.127C8763.592,10409.035 9052.178,10240.963 9187.586,10268.481L9107.289,10173.585L9130.648,10145.846L9099.99,10140.006L9132.108,10082.658C8959.132,10046.532 8781.305,10028.191 8596.649,10034.891Z"/>
                        </clipPath>
                        <g clip-path="url(#_clip12)">
                            <g transform="matrix(1,0,0,1,34.957102,-244.600664)">
                                <path d="M8555.188,10283.996L8484.504,10358.274L9120.665,10343.898C8971.316,10280.528 8781.216,10273.882 8555.188,10283.996Z" style="fill:rgb(3,3,3);"/>
                            </g>
                        </g>
                    </g>
                </g>
                <g id="Fitas" transform="matrix(1,0,0,1,-34.957102,244.600664)">
                    <g transform="matrix(1,0,0,1,455.96108,-6783.294881)">
                        <path d="M7188.412,8822.362C7215.164,8773.695 7295.246,8804.378 7401.298,8876.551C7479.854,8994.333 7516.818,9022 7571.823,9088.756C7491.162,9028.821 7409.557,8972.661 7319.179,8951.591C7281.025,8942.148 7280.64,8973.905 7285.198,9011.057C7250.197,8951.68 7216.471,8890.664 7188.412,8822.362Z" style="fill:rgb(6,7,6);"/>
                    </g>
                    <g transform="matrix(1,0,0,1,455.96108,-6783.294881)">
                        <path d="M7188.412,8822.106L7125.07,9195.822C7345.266,9689.728 7648.936,9978.409 8001.881,10177.318C8034.553,10221.554 8028.705,10270.885 8019.756,10307.554L8253.327,10158.159C8264.388,10050.387 8275.45,9964.51 8286.511,9900.983C7733.904,9614.549 7372.225,9211.802 7188.412,8822.106Z" style="fill:rgb(26,33,25);"/>
                    </g>
                    <g transform="matrix(1,0,0,1,455.96108,-6783.294881)">
                        <path d="M8020.866,10307.554L7923.189,10382.589L7840.858,10328.112C7826.784,10310.177 7826.894,10293.735 7836.327,10278.274C7883.368,10274.285 7983.191,10307.554 7983.191,10307.554L8020.866,10307.554Z" style="fill:rgb(6,7,6);"/>
                    </g>
                    <g transform="matrix(1,0,0,1,455.96108,-6783.294881)">
                        <path d="M9986.794,8109.467L10043.672,8109.396L10139.569,8150.851L10145.567,8181.012L10219.015,8180.641C10240.351,8242.447 10258.656,8386.036 10287.064,8514.063C10072.062,8630.937 9966.104,8777.865 9855.44,8949.436C9797.42,8981.36 9703.323,8952.232 9596.19,8901.043C9631.909,8827.301 9659.133,8742.232 9694.852,8668.49C9790.61,8691.722 9854.157,8666.639 9919.165,8643.746C10002.477,8586.83 10055.888,8550.471 10078.791,8535.087C10084.341,8565.612 10111.93,8299.792 9986.794,8109.467Z" style="fill:rgb(26,33,25);"/>
                        <clipPath id="_clip13">
                            <path d="M9986.794,8109.467L10043.672,8109.396L10139.569,8150.851L10145.567,8181.012L10219.015,8180.641C10240.351,8242.447 10258.656,8386.036 10287.064,8514.063C10072.062,8630.937 9966.104,8777.865 9855.44,8949.436C9797.42,8981.36 9703.323,8952.232 9596.19,8901.043C9631.909,8827.301 9659.133,8742.232 9694.852,8668.49C9790.61,8691.722 9854.157,8666.639 9919.165,8643.746C10002.477,8586.83 10055.888,8550.471 10078.791,8535.087C10084.341,8565.612 10111.93,8299.792 9986.794,8109.467Z"/>
                        </clipPath>
                        <g clip-path="url(#_clip13)">
                            <path d="M9985.724,8109.396C10043.393,8089.923 10115.922,8094.796 10217.42,8152.867C10200.977,8113.128 10253.358,8462.046 10253.358,8462.046C10264.095,8514.196 10178.49,8528.257 10077.099,8536.077L9985.724,8109.396Z" style="fill:rgb(6,7,6);"/>
                        </g>
                    </g>
                    <g transform="matrix(1,0,0,1,455.96108,-6783.294881)">
                        <path d="M7839.123,10277.942L7752.809,10330.265C7660.312,10530.909 7806.206,10684.594 8007.273,10828.419C8001.192,10793.683 7988.082,10764.219 7972.33,10736.737C7976.839,10717.386 7990.847,10673.141 7990.847,10673.141C7990.847,10673.141 7972.459,10668.981 7964.635,10664.562L7943.128,10622.214L7951.736,10483.97L7977.567,10420.009C7935.228,10389.5 7815.622,10310.556 7839.123,10277.942Z" style="fill:rgb(26,33,25);"/>
                    </g>
                    <g transform="matrix(1,0,0,1,455.96108,-6783.294881)">
                        <path d="M9052.684,7400.436C9197.822,7389.095 9364.889,7576.029 9391.903,7483.478C9617.578,8005.709 9727.305,7908.744 9985.724,8109.396C9985.724,8109.396 9709.174,8135.242 9596.19,8069.917C9441.012,7980.196 9045.353,7404.102 9052.684,7400.436Z" style="fill:rgb(26,33,25);"/>
                    </g>
                </g>
                <g id="Medalha" transform="matrix(1.18466,-0.121457,0.121457,1.18466,-1966.738289,1286.251518)">
                    <g transform="matrix(1.470384,-0,0,1,-3703.68705,-6783.294881)">
                        <path d="M8863.563,7453.821C8850.781,7461.235 8827.76,7519.541 8857.982,7518.09C8869.626,7517.532 8889.173,7508.103 8920.253,7483.478C9062.385,7389.757 9247.43,7284.668 9335.22,7261.972L9323.634,7237.746C9285.953,7218.905 8931.659,7414.322 8863.563,7453.821Z" style="fill:rgb(71,86,12);"/>
                    </g>
                    <g transform="matrix(1.02047,0,0,1.017393,276.057578,-6916.151457)">
                        <path d="M8744.543,7561.742C8743.682,7559.732 8743.532,7556.945 8744.277,7553.562C8745.179,7549.467 8747.388,7544.284 8750.609,7538.552C8762.703,7517.03 8789.194,7487.387 8809.517,7478.553C8829.8,7469.737 8866.943,7466.621 8891.06,7470.786C8902.235,7472.716 8910.672,7476.42 8914.127,7481.351C8915.767,7483.691 8916.463,7486.713 8916.171,7490.286C8915.808,7494.716 8913.877,7500.146 8910.749,7506.031C8899.233,7527.698 8871.397,7556.107 8855.023,7563.407C8835.296,7572.201 8792.81,7575.137 8767.179,7571.598C8760.322,7570.651 8754.635,7569.224 8750.799,7567.39C8747.513,7565.82 8745.436,7563.827 8744.543,7561.742ZM8767.719,7551.987C8767.996,7552.614 8768.825,7552.979 8769.845,7553.452C8772.484,7554.673 8776.412,7555.558 8781.129,7556.188C8800.486,7558.777 8832.587,7556.774 8847.485,7550.342C8859.655,7545.088 8880.22,7524.52 8888.779,7508.925C8890.493,7505.802 8891.719,7502.9 8892.208,7500.383C8892.55,7498.621 8892.604,7497.113 8891.824,7496.035C8891.094,7495.026 8889.889,7494.197 8888.377,7493.44C8885.543,7492.02 8881.723,7490.978 8877.296,7490.237C8859.187,7487.208 8831.289,7489.397 8816.058,7495.808C8800.887,7502.194 8781.261,7523.77 8772.233,7539.328C8770.031,7543.122 8768.465,7546.529 8767.849,7549.239C8767.59,7550.376 8767.42,7551.311 8767.719,7551.987Z" style="fill:rgb(120,129,120);"/>
                    </g>
                    <g transform="matrix(0.743545,0.004708,-0.004708,0.743545,2372.654883,156.00849)">
                        <g>
                            <g transform="matrix(1.050506,-0,0,1.074379,48.290065,-7390.844619)">
                                <path d="M8719.2,7624.833C8710.206,7897.154 8092.023,8232.575 7901.72,8082.844C7889.633,8077.328 7881.113,7939.754 7925.845,7895.441C8066.223,7747.51 8238.812,7653.33 8428.325,7584.228C8520.375,7556.019 8597.849,7556.963 8663.343,7581.868C8686.965,7591.462 8705.412,7606.49 8719.2,7624.833ZM8198.498,7695.415C8176.426,7709.288 8174.324,7816.68 8174.324,7816.68C8174.324,7816.68 7963.943,7968.434 7962.016,7990.358C7960.089,8012.281 8162.763,7948.223 8162.763,7948.223C8162.763,7948.223 8186.586,8075.514 8226.876,8064.35C8267.165,8053.186 8404.5,7881.24 8404.5,7881.24C8404.5,7881.24 8590.664,7842.637 8608.181,7820.791C8625.698,7798.945 8509.603,7750.166 8509.603,7750.166C8509.603,7750.166 8600.167,7640.653 8566.358,7637.865C8532.55,7635.077 8306.754,7733.439 8306.754,7733.439C8306.754,7733.439 8220.569,7681.541 8198.498,7695.415ZM8210.858,7713.306C8230.048,7701.393 8304.977,7745.957 8304.977,7745.957C8304.977,7745.957 8510.745,7659.44 8540.138,7661.834C8569.531,7664.228 8481.335,7760.321 8481.335,7760.321C8481.335,7760.321 8592.779,7797.068 8577.55,7815.826C8562.32,7834.585 8389.958,7872.871 8389.958,7872.871C8389.958,7872.871 8270.558,8020.518 8235.53,8030.104C8200.502,8039.69 8179.79,7930.388 8179.79,7930.388C8179.79,7930.388 8003.584,7985.394 8005.259,7966.568C8006.935,7947.743 8189.842,7817.435 8189.842,7817.435C8189.842,7817.435 8191.669,7725.219 8210.858,7713.306Z" style="fill:rgb(154,188,21);"/>
                            </g>
                            <g transform="matrix(1.050506,-0,0,1.074379,48.290065,-7390.844619)">
                                <path d="M8719.2,7624.833C8766.109,7687.237 8750.889,7782.869 8718.505,7843.728C8650.792,7970.979 8380.954,8092.708 8268.359,8155.762C8198.416,8194.931 8078.987,8206.156 8025.818,8189.715C7978.587,8175.11 7905.71,8122.28 7901.134,8109.396L7900.796,8100.051C8051.257,8243.108 8791.389,7879.875 8719.2,7624.833Z" style="fill:rgb(87,108,3);"/>
                            </g>
                        </g>
                        <g transform="matrix(1.282849,-0,0,1.282849,-2026.171486,-8914.152882)">
                            <path d="M8772.056,7566.455C8772.023,7566.49 8771.986,7566.522 8771.945,7566.548L8771.887,7566.58L8771.74,7566.65C8770.919,7567.04 8766.747,7569.015 8765.413,7569.686C8759.634,7572.596 8753.408,7573.698 8747.157,7573.105C8742.914,7572.703 8739.239,7571.359 8737.037,7569.028C8733.997,7565.81 8732.78,7560.609 8733.257,7555.125C8733.965,7546.967 8738.408,7538.208 8745.908,7534.561C8750.493,7532.332 8758.807,7532.718 8765.34,7534.823C8769.749,7536.243 8773.653,7540.063 8774.928,7542.655C8775.452,7543.721 8778.083,7547.313 8778.083,7547.313C8778.218,7547.497 8778.23,7547.743 8778.114,7547.94C8777.998,7548.136 8777.776,7548.244 8777.55,7548.215C8777.55,7548.215 8774.706,7547.847 8772.574,7547.372C8771.594,7547.153 8770.757,7546.9 8770.358,7546.661C8770.161,7546.543 8770.054,7546.318 8770.087,7546.091C8770.135,7545.753 8770.055,7545.383 8769.894,7544.997C8769.61,7544.318 8769.077,7543.603 8768.406,7542.919C8766.685,7541.166 8764.054,7539.616 8762.086,7539.507C8757.37,7539.247 8751.92,7538.743 8748.765,7540.277C8743.675,7542.752 8740.697,7548.72 8740.216,7554.257C8739.899,7557.903 8740.66,7561.374 8742.681,7563.513C8744.13,7565.047 8746.565,7565.891 8749.357,7566.156C8753.657,7566.564 8757.401,7567.556 8761.406,7565.611C8762.37,7565.143 8763.265,7564.76 8763.265,7564.76C8763.351,7564.724 8763.445,7564.709 8763.539,7564.717C8765.765,7564.911 8770.58,7565.353 8771.712,7565.503C8772.02,7565.544 8772.239,7565.824 8772.204,7566.132C8772.19,7566.258 8772.136,7566.369 8772.056,7566.455Z" style="fill:rgb(154,188,21);"/>
                        </g>
                    </g>
                    <g transform="matrix(1.473791,-0,0,1,-3733.866463,-6783.294881)">
                        <path d="M9322.855,7237.746C9356.553,7292.975 9380.867,7351.722 9391.903,7415.449C9377.439,7519.132 8987.546,7573.819 8915.77,7557.688C8894.175,7552.834 8774.631,7484.04 8898.742,7500.307C8951.785,7503.071 9042.958,7494.109 9062.423,7478.969C9127.686,7445.558 9262.32,7423.91 9319.641,7419.668C9341.937,7418.018 9343.703,7295.727 9322.855,7237.746Z" style="fill:rgb(181,222,20);"/>
                    </g>
                </g>
            </g>
        </g>
    </g>
    <defs>
        <linearGradient id="_Linear1" x1="0" y1="0" x2="1" y2="0" gradientUnits="userSpaceOnUse" gradientTransform="matrix(2.747918,1849.961333,-1849.961333,2.747918,8629.357644,8985.766208)"><stop offset="0" style="stop-color:rgb(248,253,227);stop-opacity:0"/><stop offset="1" style="stop-color:rgb(155,253,91);stop-opacity:1"/></linearGradient>
        <linearGradient id="_Linear2" x1="0" y1="0" x2="1" y2="0" gradientUnits="userSpaceOnUse" gradientTransform="matrix(13.338492,2485.952797,-2485.952797,13.338492,8807.689027,7917.340197)"><stop offset="0" style="stop-color:rgb(248,253,227);stop-opacity:0.58"/><stop offset="0.23" style="stop-color:rgb(244,254,156);stop-opacity:0.68"/><stop offset="0.54" style="stop-color:rgb(237,254,89);stop-opacity:0.79"/><stop offset="0.67" style="stop-color:rgb(223,252,78);stop-opacity:0.74"/><stop offset="0.8" style="stop-color:rgb(212,251,72);stop-opacity:0.69"/><stop offset="0.91" style="stop-color:rgb(204,251,67);stop-opacity:0.66"/><stop offset="0.96" style="stop-color:rgb(202,250,66);stop-opacity:0.65"/><stop offset="1" style="stop-color:rgb(201,250,66);stop-opacity:0.64"/></linearGradient>
        <linearGradient id="_Linear7" x1="0" y1="0" x2="1" y2="0" gradientUnits="userSpaceOnUse" gradientTransform="matrix(157.512639,-511.280105,515.728594,156.153992,9246.384446,9818.338799)"><stop offset="0" style="stop-color:rgb(191,255,155);stop-opacity:1"/><stop offset="0.31" style="stop-color:rgb(164,255,113);stop-opacity:1"/><stop offset="0.61" style="stop-color:rgb(149,255,90);stop-opacity:1"/><stop offset="1" style="stop-color:rgb(149,255,124);stop-opacity:1"/></linearGradient>
    </defs>
</svg>
