<?xml version="1.0" encoding="UTF-8" standalone="no"?>
<!DOCTYPE svg PUBLIC "-//W3C//DTD SVG 1.1//EN" "http://www.w3.org/Graphics/SVG/1.1/DTD/svg11.dtd">
<svg width="100%" height="100%" viewBox="0 0 3508 4961" version="1.1" xmlns="http://www.w3.org/2000/svg" xmlns:xlink="http://www.w3.org/1999/xlink" xml:space="preserve" xmlns:serif="http://www.serif.com/" style="fill-rule:evenodd;clip-rule:evenodd;stroke-linecap:round;stroke-linejoin:round;stroke-miterlimit:1.5;">
    <g transform="matrix(1,0,0,1,-3744.094488,0)">
        <rect id="Prancheta2" x="3744.094" y="0" width="3507.874" height="4960.63" style="fill:none;"/>
        <g id="Prancheta21" serif:id="Prancheta2">
            <g transform="matrix(2.113926,0,0,2.113926,3719.638829,40.010667)">
                <path d="M622.871,793.003L587.561,842.385C687.156,777.123 784.657,723.379 880.639,677.992C961.041,639.973 1040.376,607.817 1118.984,579.666C1115.525,727.565 1158.096,853.983 1233.954,964.866C1422.048,941.294 1402.014,1073.518 1432.944,1262.058L1432.944,1373.577C1337.06,1458.466 1229.631,1520.266 1107.308,1552.277C766.078,1592.598 613.957,1740.067 500.696,1837.817C484.391,1725.049 485.273,1609.418 500.696,1491.362L478.884,1312.9C451.974,1331.691 387.403,1337.101 352.832,1313.22C267.406,1254.208 273.551,1115.733 292.49,999.6C279.816,965.491 245.015,956.672 195.327,964.866C332.092,884.58 475.53,830.985 622.871,793.003Z" style="fill:rgb(191,191,191);"/>
            </g>
            <g transform="matrix(2.113926,0,0,2.113926,3719.638829,40.010667)">
                <g transform="matrix(1.046651,0.051345,-0.046306,0.943937,41.466771,38.008408)">
                    <path d="M664.839,1034.948L1174.387,1588.093C1176.864,1590.635 1178.066,1594.156 1177.66,1597.683C1177.255,1601.209 1175.286,1604.365 1172.297,1606.28L885.524,1786.458C880.658,1789.575 874.251,1788.713 870.382,1784.422L363.911,1234.172C361.389,1231.374 360.352,1227.541 361.121,1223.853C361.889,1220.165 364.371,1217.065 367.801,1215.508L651.496,1032.435C656.029,1030.377 661.365,1031.382 664.839,1034.948Z" style="fill:rgb(54,54,60);"/>
                </g>
                <g transform="matrix(1.007264,-0.008894,0.008904,1.008389,-15.448317,-11.624041)">
                    <path d="M684.834,1066.061L1176.38,1612.195C1177.168,1613.071 1177.498,1614.266 1177.271,1615.421C1177.044,1616.577 1176.286,1617.558 1175.225,1618.071L871.782,1764.766C870.281,1765.492 868.48,1765.14 867.363,1763.903L380.214,1224.175C379.481,1223.363 379.167,1222.256 379.365,1221.181C379.562,1220.105 380.249,1219.181 381.223,1218.682L680.332,1065.234C681.847,1064.457 683.696,1064.796 684.834,1066.061Z" style="fill:url(#_Radial1);"/>
                </g>
                <g transform="matrix(1.01074,0,0,1,-8.690496,-9.493314)">
                    <path d="M367.199,1223.291L367.199,1258.044C367.199,1259.448 367.722,1260.8 368.663,1261.832C397.282,1293.198 836.268,1774.326 875.904,1817.767C877.592,1819.617 880.296,1820.098 882.507,1818.942C915.809,1801.533 1160.625,1673.547 1188.713,1658.864C1190.352,1658.007 1191.46,1656.379 1191.666,1654.526C1192.743,1644.854 1196.083,1614.853 1196.083,1614.853L878.762,1776.809L367.199,1223.291Z" style="fill:rgb(41,41,45);"/>
                </g>
                <g transform="matrix(0.494824,0,0,0.448851,277.357925,626.0887)">
                    <ellipse cx="562.026" cy="1162.255" rx="18.288" ry="17.541" style="fill:rgb(54,54,60);"/>
                </g>
                <g transform="matrix(0.817377,0.00514,-0.00506,0.804622,197.060367,330.789821)">
                    <path d="M1026.458,1730.19C1024.442,1731.27 1022.029,1731.259 1020.023,1730.16C1018.018,1729.06 1016.683,1727.018 1016.465,1724.713C1016.398,1723.942 1016.096,1723.294 1015.57,1722.768C1014.003,1721.211 1013.268,1718.984 1013.592,1716.781C1013.916,1714.579 1015.26,1712.668 1017.207,1711.644C1039.673,1699.82 1074.493,1681.497 1093.902,1671.285C1095.855,1670.257 1098.175,1670.247 1100.137,1671.257C1102.098,1672.268 1103.462,1674.176 1103.8,1676.384C1103.937,1677.284 1104.266,1678.082 1104.814,1678.757C1106.122,1680.366 1106.646,1682.487 1106.243,1684.532C1105.84,1686.577 1104.552,1688.329 1102.736,1689.303C1082.639,1700.084 1048.763,1718.238 1026.458,1730.19Z" style="fill:rgb(22,22,24);"/>
                </g>
            </g>
            <g id="Trophy" transform="matrix(2.113926,0,0,2.113926,3719.638829,40.010667)">
                <path d="M294.728,741.417L312.065,717.857L408.97,667.627L490.317,661.403L502.319,682.296C502.319,682.296 491.263,707.353 494.086,719.855C499.382,743.303 534.093,822.984 534.093,822.984C535.999,828.227 539.009,872.511 532.315,882.105C522.756,895.803 506.763,918.47 510.978,927.446C513.29,932.37 527.32,940.603 525.647,941.226L526.536,954.117L522.405,974.748C531.381,996.931 581.212,1015.016 581.212,1015.016C602.618,1018.809 628.518,1008.445 629.007,1014.796C631.346,1045.199 528.903,1105.065 492.984,1099.255C481.541,1097.404 508.842,1081.162 511.654,1069.916C515.654,1053.914 518.025,1017.685 516.988,1003.239C516.436,995.558 505.43,983.235 505.43,983.235C494.536,980.145 485.86,975.391 478.759,969.455C475.57,963.609 474.214,954.706 473.869,944.118L426.306,939.672C405.214,933.272 389.135,922.485 375.631,909.445L312.509,820.541C302.449,809.981 289.912,805.615 276.058,804.539L264.501,780.979L294.728,741.417" style="fill:rgb(189,251,116);"/>
                <path d="M517.133,740.722L517.133,725.919L511.524,720.117C514.074,705.936 526.896,697.097 545.565,691.298L558.717,691.878L570.902,710.64C571.202,721.532 570.409,729.146 568.775,734.236L551.948,752.804C543.571,757.083 535.888,762.577 530.092,771.372L533.186,780.075L532.993,795.935L526.997,806.379L534.667,824.174L540.938,805.21L541.694,796.144L547.738,782.544C560.365,759.826 574.419,739.349 592.691,725.502L586.647,707.37C579.118,692.05 571.184,681.992 562.848,677.149L509.206,691.504L494.851,717.192L499.007,740.722L517.133,740.722Z" style="fill:rgb(189,251,116);"/>
                <g transform="matrix(-0.564619,0.860359,0.849513,0.557501,-18.87084,-6.912613)">
                    <path d="M517.133,740.722L517.133,725.919L511.524,720.117C514.074,705.936 526.896,697.097 545.565,691.298L558.717,691.878L570.902,710.64C571.202,721.532 570.409,729.146 568.775,734.236L551.948,752.804C543.571,757.083 535.888,762.577 530.092,771.372L533.186,780.075L532.993,795.935L526.997,806.379L534.667,824.174L540.938,805.21L541.694,796.144L547.738,782.544C560.365,759.826 574.419,739.349 592.691,725.502L586.647,707.37C579.118,692.05 571.184,681.992 562.848,677.149L509.206,691.504L494.851,717.192L499.007,740.722L517.133,740.722Z" style="fill:rgb(189,251,116);"/>
                </g>
                <clipPath id="_clip2">
                    <path d="M294.728,741.417C312.462,739.556 330.935,741.393 350.242,747.402L421.663,862.502C439.527,877.267 455.53,887.496 481.453,892.59C492.636,894.204 508.697,895.78 519.054,892.604C520.936,894.016 536.43,873.552 534.31,878.05C531.055,884.956 509.409,915.741 510.348,924.971C511.067,932.042 522.642,938.071 522.642,938.071C518.93,936.469 515.046,934.63 512.521,932.925C511.368,933.021 507.89,932.814 506.83,933.222C502.975,934.707 499.454,936.142 496.034,938.644C499.826,944.979 506.002,950.664 514.332,955.761L526.272,954.706L522.481,975.324C522.481,975.324 516.546,976.356 517.414,978.689C520.412,986.748 540.623,1022.439 540.623,1022.439L538.883,1050.484C558.717,1037.969 580.861,1026.224 605.417,1015.283C605.417,1015.283 629.439,1007.425 629.046,1015.313C627.433,1047.678 527.438,1107.84 490.691,1099.649C479.418,1097.136 511.287,1071.783 511.287,1071.783C516.184,1048.158 518.11,1024.532 516.712,1000.907L505.832,982.774C496.806,982.278 487.78,977.844 478.754,969.477C474.423,962.496 472.68,954.221 474.644,944.091L426.291,939.981C406.126,935.419 389.389,924.857 375.52,909.277C375.52,909.277 325.555,835.115 308.913,817.708C299.509,807.871 275.67,804.834 275.67,804.834L264.501,780.657"/>
                </clipPath>
                <g clip-path="url(#_clip2)">
                    <path d="M294.728,741.417L312.065,717.857L408.97,667.627L490.317,661.403L502.319,682.296C502.319,682.296 491.263,707.353 494.086,719.855C499.382,743.303 534.093,822.984 534.093,822.984C535.999,828.227 539.009,872.511 532.315,882.105C522.756,895.803 506.763,918.47 510.978,927.446C513.29,932.37 527.32,940.603 525.647,941.226L526.536,954.117L522.405,974.748C531.381,996.931 581.212,1015.016 581.212,1015.016C602.618,1018.809 628.518,1008.445 629.007,1014.796C631.346,1045.199 528.903,1105.065 492.984,1099.255C481.541,1097.404 508.842,1081.162 511.654,1069.916C515.654,1053.914 518.025,1017.685 516.988,1003.239C516.436,995.558 505.43,983.235 505.43,983.235C494.536,980.145 485.86,975.391 478.759,969.455C475.57,963.609 474.214,954.706 473.869,944.118L426.306,939.672C405.214,933.272 389.135,922.485 375.631,909.445L312.509,820.541C302.449,809.981 289.912,805.615 276.058,804.539L264.501,780.979L294.728,741.417" style="fill:rgb(64,162,115);"/>
                </g>
            </g>
            <g id="Flashs" transform="matrix(2.113926,0,0,2.113926,3719.638829,40.010667)">
                <path d="M35.013,1220.245C57.424,1177.936 93.3,1143.108 138.768,1113.608L375.099,1119.372L484.619,1166.446C391.947,1172.449 322.066,1190.603 285.755,1240.157C273.623,1262.747 272.267,1283.798 278.069,1303.826C288.782,1327.977 309.294,1348.209 332.829,1367.231L341.475,1358.585C367.318,1375.125 397.185,1389.653 435.623,1399.895L424.48,1408.506L533.614,1412.384C471.601,1420.958 408.652,1422.748 342.436,1400.856L321.185,1387.429L297.575,1388.905C215.514,1302.657 127.322,1250.131 35.013,1220.245Z" style="fill:rgb(237,254,86);"/>
                <clipPath id="_clip3">
                    <path d="M35.013,1220.245C57.424,1177.936 93.3,1143.108 138.768,1113.608L375.099,1119.372L484.619,1166.446C391.947,1172.449 322.066,1190.603 285.755,1240.157C273.623,1262.747 272.267,1283.798 278.069,1303.826C288.782,1327.977 309.294,1348.209 332.829,1367.231L341.475,1358.585C367.318,1375.125 397.185,1389.653 435.623,1399.895L424.48,1408.506L533.614,1412.384C471.601,1420.958 408.652,1422.748 342.436,1400.856L321.185,1387.429L297.575,1388.905C215.514,1302.657 127.322,1250.131 35.013,1220.245Z"/>
                </clipPath>
                <g clip-path="url(#_clip3)">
                    <path d="M52.462,1191.591C78.732,1163.387 108.888,1132.846 141.307,1114.889C190.376,1112.164 360.996,1117.818 378.022,1121.806L477.166,1162.54C389.087,1167.603 311.606,1178.44 254.285,1216.338C242.032,1232.584 239.554,1259.872 245.831,1294.731C264.206,1335.978 294.319,1362.878 331.14,1381.578L375.901,1386.497L378.36,1379.119C398.652,1389.984 417.961,1396.015 437.386,1398.302L424.518,1407.982C465.898,1413.194 502.509,1411.125 541.756,1413.811C435.282,1424.912 392.483,1413.912 352.987,1404.185C341.04,1401.242 331.431,1392.865 321.384,1387.482L299.359,1390.126C263.965,1344.153 226.461,1314.354 187.919,1292.519C157.563,1238.851 110.691,1210.828 52.462,1191.591Z" style="fill:rgb(200,250,65);stroke:black;stroke-opacity:0;stroke-width:2.96px;"/>
                </g>
                <path d="M35.013,1220.245C57.424,1177.936 93.3,1143.108 138.768,1113.608L375.099,1119.372L484.619,1166.446C391.947,1172.449 322.066,1190.603 285.755,1240.157C273.623,1262.747 272.267,1283.798 278.069,1303.826C288.782,1327.977 309.294,1348.209 332.829,1367.231L341.475,1358.585C367.318,1375.125 397.185,1389.653 435.623,1399.895L424.48,1408.506L533.614,1412.384C471.601,1420.958 408.652,1422.748 342.436,1400.856L321.185,1387.429L297.575,1388.905C215.514,1302.657 127.322,1250.131 35.013,1220.245Z" style="fill:none;stroke:black;stroke-opacity:0;stroke-width:2.96px;"/>
                <path d="M352.832,420.147L402.428,387.904L475.441,395.589L828.976,416.725C970.043,433.523 1111.896,447.964 1255.525,457.074L1237.272,468.602L1424.608,417.685C1296.423,472.034 1165.952,516.088 1032.644,547.379L1177.159,499.562L1102.775,512.794L1091.337,519.1L1044.402,514.329L923.819,478.004L808.228,433.735C747.563,446.801 679.322,454.183 608.403,459.558L602.87,505.057C617.367,544.923 637.227,587.04 684.644,635.404L700.473,638.199L688.587,643.79C725.868,671.102 763.149,688.683 800.43,695.008L795.511,714.683L698.611,712.224C646.26,662.592 592.533,615.438 533.614,577.627L352.832,420.147Z" style="fill:rgb(237,254,86);"/>
                <clipPath id="_clip4">
                    <path d="M352.832,420.147L402.428,387.904L475.441,395.589L828.976,416.725C970.043,433.523 1111.896,447.964 1255.525,457.074L1237.272,468.602L1424.608,417.685C1296.423,472.034 1165.952,516.088 1032.644,547.379L1177.159,499.562L1102.775,512.794L1091.337,519.1L1044.402,514.329L923.819,478.004L808.228,433.735C747.563,446.801 679.322,454.183 608.403,459.558L602.87,505.057C617.367,544.923 637.227,587.04 684.644,635.404L700.473,638.199L688.587,643.79C725.868,671.102 763.149,688.683 800.43,695.008L795.511,714.683L698.611,712.224C646.26,662.592 592.533,615.438 533.614,577.627L352.832,420.147Z"/>
                </clipPath>
                <g clip-path="url(#_clip4)">
                    <path d="M825.162,415.586L823.761,437.057L1085.784,513.51L1187.838,496.354L1033.298,547.173L1193.628,499.503L1185.943,482.21L1228.213,455.311C1093.974,445.435 959.403,432.562 825.162,415.586Z" style="fill:rgb(200,250,65);"/>
                    <path d="M348.625,420.442L400.535,387.904L558.089,398.235L716.163,408.236L555.727,470.682L583.587,505.267L603.762,496.62C616.53,538.775 636.695,578.711 663.325,616.707C675.173,626.932 687.022,635.084 698.87,639.764L690.224,646.489L708.477,656.096C739.275,676.37 771.512,690.885 806.468,694.524L804.547,713.737L532.67,571.555L475.989,503.345C442.316,458.956 396.161,430.177 348.625,420.442Z" style="fill:rgb(200,250,65);"/>
                </g>
                <path d="M1448.293,976.504C1502.067,963.824 1560.191,967.563 1618.348,971.428L1647.536,1096.375C1603.475,1191.526 1576.62,1287.825 1565.047,1385.143L1566.773,1471.287C1518.962,1471.799 1379.494,1548.758 1304.889,1589.462C1256.7,1624.651 1183.486,1649.833 1059.287,1652.662L1025.987,1584.386L1188.135,1580.579C1220.809,1574.413 1240.813,1561.681 1259.202,1550.121L1332.808,1404.179L1353.113,1424.484C1391.751,1369.592 1426.251,1303.322 1456.225,1224.606L1491.124,1061.214L1500.058,1078.27L1504.932,1008.421L1470.819,1005.984" style="fill:rgb(237,254,86);"/>
                <clipPath id="_clip5">
                    <path d="M1448.293,976.504C1502.067,963.824 1560.191,967.563 1618.348,971.428L1647.536,1096.375C1603.475,1191.526 1576.62,1287.825 1565.047,1385.143L1566.773,1471.287C1518.962,1471.799 1379.494,1548.758 1304.889,1589.462C1256.7,1624.651 1183.486,1649.833 1059.287,1652.662L1025.987,1584.386L1188.135,1580.579C1220.809,1574.413 1240.813,1561.681 1259.202,1550.121L1332.808,1404.179L1353.113,1424.484C1391.751,1369.592 1426.251,1303.322 1456.225,1224.606L1491.124,1061.214L1500.058,1078.27L1504.932,1008.421L1470.819,1005.984"/>
                </clipPath>
                <g clip-path="url(#_clip5)">
                    <path d="M1458.854,974.231L1472.79,1000.332L1526.851,998.253L1543.484,1026.323L1521.133,1069.467L1502.42,1136.522L1509.177,1197.86L1401.471,1356.085L1352.739,1422.076L1335.48,1401.771L1233.954,1613.959L1566.957,1434.259L1565.942,1379.436L1556.805,1369.283L1631.933,1038.311L1616.704,970.289C1561.095,960.958 1509.041,964.581 1458.854,974.231Z" style="fill:rgb(200,250,65);"/>
                </g>
                <path d="M588.83,1913.507L587.561,1719.34L657.359,1638.12C760.154,1547.325 862.948,1498.79 965.742,1485.832L969.549,1534.056C961.084,1537.352 942.744,1500.174 767.768,1629.819C615.346,1742.752 607.209,1783.908 607.866,1913.507L588.83,1913.507Z" style="fill:rgb(200,250,65);"/>
            </g>
            <g id="Raquete" transform="matrix(2.113926,0,0,2.113926,3719.638829,40.010667)">
                <g>
                    <path d="M1045.419,1572.265L1045.96,1710.881" style="fill:none;stroke:rgb(0,218,0);stroke-width:1.38px;"/>
                    <path d="M1078.99,1517.035L1076.282,1724.959" style="fill:none;stroke:rgb(0,218,0);stroke-width:1.38px;"/>
                    <path d="M1106.605,1477.508L1107.146,1724.959" style="fill:none;stroke:rgb(0,218,0);stroke-width:1.38px;"/>
                    <path d="M1107.146,1724.959L1107.146,1731.261" style="fill:none;stroke:rgb(0,218,0);stroke-width:1.38px;"/>
                    <path d="M1136.927,1452.947L1136.385,1724.959" style="fill:none;stroke:rgb(0,218,0);stroke-width:1.38px;"/>
                    <path d="M1165.083,1435.049L1166.383,1724.902" style="fill:none;stroke:rgb(0,218,0);stroke-width:1.38px;"/>
                    <path d="M1197.03,1422.877L1196.488,1703.503" style="fill:none;stroke:rgb(0,218,0);stroke-width:1.38px;"/>
                    <path d="M1223.562,1422.877L1223.778,1677.404" style="fill:none;stroke:rgb(0,218,0);stroke-width:1.38px;"/>
                    <path d="M1254.425,1435.049L1257.674,1644.332L1254.425,1435.049Z" style="fill:rgb(128,128,128);stroke:rgb(0,218,0);stroke-width:1.38px;"/>
                    <path d="M1282.581,1454.168L1282.581,1593.867" style="fill:none;stroke:rgb(0,218,0);stroke-width:1.38px;"/>
                    <path d="M1184.576,1422.877L1230.059,1422.877" style="fill:none;stroke:rgb(0,218,0);stroke-width:1.38px;"/>
                    <path d="M1136.927,1448.212L1282.581,1452.947" style="fill:none;stroke:rgb(0,218,0);stroke-width:1.38px;"/>
                    <path d="M1107.146,1473.661L1293.952,1472.578" style="fill:none;stroke:rgb(0,218,0);stroke-width:1.38px;"/>
                    <path d="M1094.692,1494.237L1301.23,1494.388" style="fill:none;stroke:rgb(0,218,0);stroke-width:1.38px;"/>
                    <path d="M1076.824,1516.437L1300.991,1516.978" style="fill:none;stroke:rgb(0,218,0);stroke-width:1.38px;"/>
                    <path d="M1054.082,1539.69L1300.991,1540.803" style="fill:none;stroke:rgb(0,218,0);stroke-width:1.38px;"/>
                    <path d="M1050.834,1561.379L1300.991,1562.462" style="fill:none;stroke:rgb(0,218,0);stroke-width:1.38px;"/>
                    <path d="M1045.96,1585.745L1293.682,1585.745" style="fill:none;stroke:rgb(0,218,0);stroke-width:1.38px;"/>
                    <path d="M1030.799,1607.837C1101.579,1607.519 1194.365,1609.095 1284.574,1609.569" style="fill:none;stroke:rgb(0,218,0);stroke-width:1.38px;"/>
                    <path d="M1257.674,1630.145L1023.522,1630.578L1257.674,1630.145Z" style="fill:rgb(128,128,128);stroke:rgb(0,218,0);stroke-width:1.38px;"/>
                    <path d="M1023.522,1658.699L1241.473,1658.699" style="fill:none;stroke:rgb(0,218,0);stroke-width:1.38px;"/>
                    <path d="M1030.799,1678.877L1223.778,1677.404" style="fill:none;stroke:rgb(0,218,0);stroke-width:1.38px;"/>
                    <path d="M1031.579,1703.503L1197.03,1703.503" style="fill:none;stroke:rgb(0,218,0);stroke-width:1.38px;"/>
                    <path d="M1049.339,1724.902L1166.383,1724.959L1049.339,1724.902Z" style="fill:rgb(128,128,128);stroke:rgb(0,218,0);stroke-width:1.38px;"/>
                </g>
                <path d="M917.301,1903.457C919.684,1893.539 922.066,1886.246 924.449,1881.651L941.992,1866.057L1014.116,1757.547C1021.961,1747.848 1025.114,1733.457 1022.563,1713.363C1011.608,1694.233 1005.621,1672.974 1004.369,1649.686C1012.989,1608.079 1025.855,1573.903 1041.406,1544.425L1110.93,1454.758C1146,1433.181 1183.503,1415.255 1222.039,1398.879C1253.661,1404.943 1281.817,1417.938 1306.508,1437.864C1323.573,1477.335 1329.296,1519.899 1327.3,1564.568C1291.706,1622.58 1249.533,1677.303 1200.077,1728.385C1179.875,1736.874 1149.336,1742.763 1092.373,1751.257C1067.849,1758.122 1046.41,1772.184 1027.085,1791.178L972.609,1877.258L971.362,1896.387L949.737,1918.427C936.864,1919.209 925.739,1915.095 917.301,1903.457ZM1208.815,1419.427C1178.958,1425.769 1152.349,1438.62 1122.491,1464.456C1108.047,1476.391 1088.975,1499.899 1065.868,1533.493C1044.647,1568.737 1031.859,1604.918 1030.131,1642.328C1028.218,1665.275 1031.227,1681.657 1035.817,1695.933C1048.771,1718.733 1069.429,1730.528 1097.544,1731.67C1131.506,1729.443 1163.754,1720.361 1193.384,1700.806C1238.228,1664.406 1269.363,1616.255 1298.97,1566.793L1301.406,1518.873C1301.934,1498.298 1297.088,1477.722 1286.787,1457.146C1268.92,1442.479 1244.009,1429.763 1208.815,1419.427ZM1032,1718.751C1033.247,1733.389 1032.439,1748.027 1030.137,1762.665C1044.856,1749.425 1061.372,1741.217 1079.639,1737.913C1059.41,1734.202 1043.003,1728.14 1032,1718.751Z" style="fill:rgb(0,194,52);"/>
                <path d="M992.747,1790.064C992.747,1790.064 999.004,1796.981 1003.024,1799.169C1007.342,1801.518 1018.579,1804.103 1018.579,1804.103C1018.841,1804.163 1019.057,1804.346 1019.161,1804.594C1019.265,1804.842 1019.243,1805.125 1019.103,1805.354L974.621,1877.798L971.938,1896.578C971.915,1896.74 971.845,1896.891 971.737,1897.013L952.245,1919.073C952.166,1919.162 952.069,1919.234 951.96,1919.282C943.775,1922.945 934.897,1919.955 925.76,1914.092C925.738,1914.078 925.717,1914.063 925.696,1914.047C925.696,1914.047 921.261,1910.57 918.589,1907.27C917.321,1905.704 916.475,1904.142 916.466,1902.964C916.465,1902.866 916.482,1902.768 916.515,1902.675L924.3,1881.016C924.348,1880.883 924.43,1880.764 924.536,1880.67L941.778,1865.584L991.431,1790.167C991.573,1789.951 991.807,1789.813 992.064,1789.793C992.322,1789.773 992.574,1789.873 992.747,1790.064Z" style="fill:rgb(0,155,79);"/>
            </g>
            <g transform="matrix(2.347571,0,0,2.347443,3387.472975,-216.011547)">
                <path d="M1264.954,1071.608C1261.25,1064.905 1259.142,1057.198 1259.142,1049.003C1259.142,1024.455 1278.06,1004.293 1302.092,1002.331C1300.679,1012.408 1302.591,1020.009 1306.414,1025.492C1310.382,1031.183 1316.448,1034.644 1323.286,1036.17C1331.954,1038.103 1341.862,1036.904 1350.061,1033.341C1351.8,1038.239 1352.747,1043.511 1352.747,1049.003C1352.747,1065.675 1344.02,1080.324 1330.891,1088.623C1318.667,1078.816 1308.952,1070.157 1300.556,1064.811C1293.109,1060.071 1286.6,1057.917 1280.359,1059.433C1275.234,1060.679 1270.199,1064.438 1264.954,1071.608ZM1306.117,1002.175C1324.987,1002.243 1341.239,1013.508 1348.579,1029.67C1341.11,1032.947 1332.061,1034.071 1324.148,1032.305C1318.293,1030.999 1313.059,1028.1 1309.661,1023.227C1306.214,1018.284 1304.693,1011.363 1306.117,1002.175ZM1327.752,1090.44C1321.238,1093.882 1313.817,1095.831 1305.944,1095.831C1289.619,1095.831 1275.236,1087.45 1266.859,1074.758C1271.773,1067.692 1276.35,1063.891 1281.158,1062.723C1286.611,1061.398 1292.232,1063.525 1298.738,1067.667C1306.821,1072.812 1316.127,1081.065 1327.752,1090.44Z" style="fill:rgb(189,251,116);"/>
                <clipPath id="_clip6">
                    <path d="M1264.954,1071.608C1261.25,1064.905 1259.142,1057.198 1259.142,1049.003C1259.142,1024.455 1278.06,1004.293 1302.092,1002.331C1300.679,1012.408 1302.591,1020.009 1306.414,1025.492C1310.382,1031.183 1316.448,1034.644 1323.286,1036.17C1331.954,1038.103 1341.862,1036.904 1350.061,1033.341C1351.8,1038.239 1352.747,1043.511 1352.747,1049.003C1352.747,1065.675 1344.02,1080.324 1330.891,1088.623C1318.667,1078.816 1308.952,1070.157 1300.556,1064.811C1293.109,1060.071 1286.6,1057.917 1280.359,1059.433C1275.234,1060.679 1270.199,1064.438 1264.954,1071.608ZM1306.117,1002.175C1324.987,1002.243 1341.239,1013.508 1348.579,1029.67C1341.11,1032.947 1332.061,1034.071 1324.148,1032.305C1318.293,1030.999 1313.059,1028.1 1309.661,1023.227C1306.214,1018.284 1304.693,1011.363 1306.117,1002.175ZM1327.752,1090.44C1321.238,1093.882 1313.817,1095.831 1305.944,1095.831C1289.619,1095.831 1275.236,1087.45 1266.859,1074.758C1271.773,1067.692 1276.35,1063.891 1281.158,1062.723C1286.611,1061.398 1292.232,1063.525 1298.738,1067.667C1306.821,1072.812 1316.127,1081.065 1327.752,1090.44Z"/>
                </clipPath>
                <g clip-path="url(#_clip6)">
                    <g transform="matrix(1.09129,-0.365297,0.304987,0.91122,-421.398899,575.166618)">
                        <path d="M1268.596,996.253C1249.157,1046.933 1264.939,1076.906 1314.424,1099.266C1279.471,1107.974 1258.386,1089.43 1239.294,1059.439C1234.864,1027.385 1244.476,1014.984 1268.596,996.253Z" style="fill:rgb(64,162,115);"/>
                    </g>
                </g>
            </g>
            <g transform="matrix(2.122184,0,0,2.08955,3644.878061,40.729049)">
                <g id="Bola">
                    <ellipse cx="330.487" cy="1587.548" rx="158.603" ry="161.18" style="fill:rgb(236,236,236);"/>
                    <clipPath id="_clip7">
                        <ellipse cx="330.487" cy="1587.548" rx="158.603" ry="161.18"/>
                    </clipPath>
                    <g clip-path="url(#_clip7)">
                        <g transform="matrix(0.996109,0,0,1.011666,35.228228,-0.343797)">
                            <path d="M189.273,1490.726C187.259,1513.193 186.523,1533.742 187.974,1551.012C206.289,1552.415 225.182,1556.711 244.363,1562.446C260.084,1550.612 270.954,1534.059 283.341,1522.688C277.243,1507.239 268.844,1488.412 253.977,1466.559C231.183,1470.118 209.469,1477.639 189.273,1490.726Z" style="fill:rgb(41,41,45);"/>
                        </g>
                        <g transform="matrix(0.996109,0,0,1.011666,35.228228,-0.343797)">
                            <path d="M381.217,1500.166C367.194,1504.635 353.662,1513.362 341.711,1524.893C347.152,1551.748 350.546,1569.053 353.384,1583.766C371.396,1583.345 386.247,1583.977 399.062,1585.289C404.645,1570.538 410.227,1553.11 415.81,1534.028C401.881,1521.674 391.682,1510.787 381.217,1500.166Z" style="fill:rgb(41,41,45);"/>
                        </g>
                        <g transform="matrix(0.996109,0,0,1.011666,35.228228,-0.343797)">
                            <path d="M261.69,1414.589L277.762,1437.09C303.136,1433.929 333.694,1433.699 358.375,1445.089L350.846,1418.819C315.828,1408.227 285.881,1406.274 261.69,1414.589Z" style="fill:rgb(41,41,45);"/>
                        </g>
                        <g transform="matrix(0.996109,0,0,1.011666,35.228228,-0.343797)">
                            <path d="M254.416,1618.786L230.136,1663.854L262.536,1690.347C288.994,1692.958 311.021,1687.003 324.235,1678.292L323.074,1623.962L254.416,1618.786Z" style="fill:rgb(41,41,45);"/>
                        </g>
                        <g transform="matrix(0.996109,0,0,1.011666,35.228228,-0.343797)">
                            <path d="M368.769,1713.648L368.626,1691.266L377.375,1681.896L415.81,1642.647L440.938,1642.549C422.754,1678.127 403.194,1701.89 368.769,1713.648Z" style="fill:rgb(41,41,45);"/>
                        </g>
                        <g transform="matrix(-0.495363,0.877701,-0.864204,-0.503099,1837.56116,2126.01375)">
                            <path d="M376.478,1711.614C371.15,1702.747 367.172,1694.918 368.626,1691.266L379.972,1685.653C399.588,1675.595 408.032,1658.857 415.81,1642.647L436.442,1653.284C408.752,1687.911 402.834,1699.048 376.478,1711.614Z" style="fill:rgb(41,41,45);"/>
                        </g>
                        <g>
                            <g transform="matrix(0.996109,0,0,1.011666,35.228228,-0.343797)">
                                <path d="M417.088,1642.549C423.759,1644.92 438.809,1644.515 444.692,1642.549" style="fill:none;stroke:rgb(166,166,166);stroke-width:1.97px;"/>
                            </g>
                            <g transform="matrix(0.996109,0,0,1.011666,35.228228,-0.343797)">
                                <path d="M419.467,1463.879C403.331,1447.346 358.375,1441.856 358.375,1441.856" style="fill:none;stroke:rgb(166,166,166);stroke-width:1.97px;"/>
                            </g>
                            <g transform="matrix(0.996109,0,0,1.011666,35.228228,-0.343797)">
                                <path d="M170.916,1473.115L189.368,1488.822L187.464,1549.091L157.976,1577.639C147.195,1579.252 140.354,1579.565 134.831,1577.235" style="fill:none;stroke:rgb(166,166,166);stroke-width:1.97px;"/>
                            </g>
                            <g transform="matrix(0.996109,0,0,1.011666,35.228228,-0.343797)">
                                <path d="M187.215,1550.012L248.062,1562.446C245.745,1582.258 247.207,1601.23 255.041,1618.786C246.739,1633.233 238.437,1647.68 230.136,1662.127L219.05,1658.282L176.373,1648.17C171.703,1649.156 161.546,1658.802 158.419,1662.874" style="fill:none;stroke:rgb(166,166,166);stroke-width:1.97px;"/>
                            </g>
                            <g transform="matrix(0.996109,0,0,1.011666,35.228228,-0.343797)">
                                <path d="M157.976,1577.639C158.147,1603.633 162.665,1627.816 176.373,1648.17" style="fill:none;stroke:rgb(166,166,166);stroke-width:1.97px;"/>
                            </g>
                            <g transform="matrix(0.996109,0,0,1.011666,35.228228,-0.343797)">
                                <path d="M231.195,1661.998C235.394,1672.891 262.536,1690.1 262.536,1690.1C259.676,1689.385 248.565,1712.25 253.958,1725.159" style="fill:none;stroke:rgb(166,166,166);stroke-width:1.97px;"/>
                            </g>
                            <g transform="matrix(0.996109,0,0,1.011666,35.228228,-0.343797)">
                                <path d="M247.851,1562.446L283.341,1520.811L340.475,1525.305L352.74,1581.134L322.288,1623.005L257.155,1618.775" style="fill:none;stroke:rgb(166,166,166);stroke-width:1.97px;"/>
                            </g>
                            <g transform="matrix(0.996109,0,0,1.011666,35.228228,-0.343797)">
                                <path d="M255.463,1466.559L283.341,1520.811L341.321,1524.46L377.694,1499.929C378.115,1483.405 356.065,1441.856 356.065,1441.856C356.065,1441.856 308.521,1434.802 279.148,1435.219L255.463,1466.559Z" style="fill:none;stroke:rgb(166,166,166);stroke-width:1.97px;"/>
                            </g>
                            <g transform="matrix(0.996109,0,0,1.011666,35.228228,-0.343797)">
                                <path d="M348.655,1417.538C353.144,1424.972 355.892,1433.805 356.065,1441.856" style="fill:none;stroke:rgb(166,166,166);stroke-width:1.97px;"/>
                            </g>
                            <g transform="matrix(0.996109,0,0,1.011666,35.228228,-0.343797)">
                                <path d="M352.74,1582.52L400.955,1585.289C405.907,1600.633 410.859,1619.407 415.81,1642.647L368.626,1690.1L323.98,1678.292L321.442,1624.274" style="fill:none;stroke:rgb(166,166,166);stroke-width:1.97px;"/>
                            </g>
                            <g transform="matrix(0.996109,0,0,1.011666,35.228228,-0.343797)">
                                <path d="M262.536,1690.1C283.018,1693.573 302.593,1687.232 323.074,1678.292L368.626,1690.793C370.42,1705.426 368.156,1717.065 360.396,1720.288" style="fill:none;stroke:rgb(166,166,166);stroke-width:1.97px;"/>
                            </g>
                            <g transform="matrix(0.996109,0,0,1.011666,35.228228,-0.343797)">
                                <path d="M401.073,1585.289L415.81,1533.641L378.761,1500.166L415.81,1533.641C437.733,1531.642 442.167,1522.957 447.174,1519.008" style="fill:none;stroke:rgb(166,166,166);stroke-width:1.97px;"/>
                            </g>
                            <g transform="matrix(0.996109,0,0,1.011666,35.228228,-0.343797)">
                                <path d="M189.775,1488.956C208.541,1476.502 230.784,1469.264 255.463,1465.679" style="fill:none;stroke:rgb(166,166,166);stroke-width:1.97px;"/>
                            </g>
                            <g transform="matrix(0.996109,0,0,1.011666,35.228228,-0.343797)">
                                <path d="M261.977,1414.535C266.804,1420.701 272.01,1427.782 277.453,1435.181" style="fill:none;stroke:rgb(166,166,166);stroke-width:1.97px;"/>
                            </g>
                        </g>
                        <g transform="matrix(0.984714,-0.152585,0.150238,1.000093,-198.133463,61.571118)">
                            <path d="M157.976,1490.874C134.337,1671.21 280.7,1733.173 400.364,1728.903C322.335,1761.272 187.884,1744.395 158.419,1662.874C126.818,1607.637 130.833,1550.027 157.976,1490.874Z" style="fill:rgb(179,179,179);fill-opacity:0.5;"/>
                        </g>
                    </g>
                </g>
            </g>
            <g id="Braço-esquerdo" serif:id="Braço esquerdo" transform="matrix(2.113926,0,0,2.113926,3719.638829,40.010667)">
                <g transform="matrix(0.832295,0.335281,-0.329446,0.81781,344.879462,-73.318488)">
                    <path d="M623.492,670.492C623.492,670.492 588.612,661.545 586.543,664.304C584.474,667.062 613.132,681.916 613.132,681.916C619.91,688.717 621.529,696.985 622.008,705.577L634.315,704.235L635.27,686.727L623.492,670.492Z" style="fill:rgb(108,61,45);"/>
                </g>
                <g transform="matrix(1.119763,0.413117,-0.440549,1.194118,241.874553,-392.14188)">
                    <path d="M621.217,672.417C621.217,672.417 592.828,665.123 590.759,667.881C588.69,670.64 613.132,681.916 613.132,681.916C618.076,689.403 625.074,696.476 622.008,705.577L634.315,704.235L635.27,686.727L621.217,672.417Z" style="fill:rgb(108,61,45);"/>
                </g>
                <path d="M742.432,749.816L711.138,741.91L665.494,731.164L625.082,728.833C614.655,727.463 587.923,714.989 589.477,710.844C591.031,706.699 617.946,715.477 634.407,703.964C636.952,698.863 637.35,693.287 636.426,686.09C635.715,680.546 631.661,671.403 624.43,663.808C611.475,650.202 606.862,640.582 609.15,640.202C614.102,639.38 637.05,660.094 639.272,659.902C642.716,668.349 645.779,673.746 648.933,679.872C654.864,692.002 662.066,701.591 671.534,706.646C702.732,707.403 739.123,708.506 783.584,710.148C793.502,691.349 808.167,675.716 828.696,663.991L838.92,636.352C844.904,613.784 890.323,596.147 911.367,609.928C902.148,637.162 890.55,667.062 897.247,705.791C895.982,707.374 883.596,677.429 880.979,683.099C876.141,693.578 853.817,720.024 834.236,738.857C832.651,745.755 831.455,755.236 829.697,756.182C816.766,763.144 764.948,760.388 742.432,749.816Z" style="fill:rgb(169,112,92);"/>
                <clipPath id="_clip8">
                    <path d="M897.247,708.949C899.688,716.118 912.104,722.36 881.279,677.326C871.764,663.425 854.142,712.816 830.606,734.243C830.103,757.89 795.991,759.919 744.117,747.354L668.524,731.716L814.135,776.17L897.247,708.949Z"/>
                </clipPath>
                <g clip-path="url(#_clip8)">
                    <path d="M742.432,749.816L711.138,741.91L665.494,731.164L625.082,728.833C614.655,727.463 587.923,714.989 589.477,710.844C591.031,706.699 617.946,715.477 634.407,703.964C636.952,698.863 637.35,693.287 636.426,686.09C635.715,680.546 631.661,671.403 624.43,663.808C611.475,650.202 606.862,640.582 609.15,640.202C614.102,639.38 637.05,660.094 639.272,659.902C642.716,668.349 645.779,673.746 648.933,679.872C654.864,692.002 662.066,701.591 671.534,706.646C702.732,707.403 739.123,708.506 783.584,710.148C793.502,691.349 808.167,675.716 828.696,663.991L838.92,636.352C844.904,613.784 890.323,596.147 911.367,609.928C902.148,637.162 890.55,667.062 897.247,705.791C895.982,707.374 883.596,677.429 880.979,683.099C876.141,693.578 853.817,720.024 834.236,738.857C832.651,745.755 831.455,755.236 829.697,756.182C816.766,763.144 764.948,760.388 742.432,749.816Z" style="fill:rgb(108,61,45);"/>
                </g>
            </g>
            <g id="Braço-direito" serif:id="Braço direito" transform="matrix(2.113926,0,0,2.113926,3719.638829,40.010667)">
                <g transform="matrix(1,0,0,1,8.669788,1.691666)">
                    <path d="M1208.659,742.44C1208.659,742.44 1187.713,747.897 1181.555,748.945C1178.561,749.455 1175.019,750.983 1174.52,753.756C1173.474,759.558 1190.585,762.172 1197.65,760.588C1204.08,759.147 1213.646,763.4 1213.646,763.4L1208.659,742.44Z" style="fill:rgb(110,62,46);"/>
                </g>
                <g id="Braço-direito1" serif:id="Braço direito" transform="matrix(1,0,0,1,-3.474276,-1.981315)">
                    <path d="M1024.844,586.002C1013.185,637.64 1030.391,674.146 1047.157,706.535C1051.488,714.902 1064.988,722.55 1068.994,720.317C1076.634,716.061 1075.844,718.349 1075.122,689.789C1074.835,678.454 1084.818,656.041 1078.862,653.261C1079.851,647.556 1115.303,649.77 1115.303,649.77C1123.612,660.346 1210.991,675.891 1208.897,670.132C1212.211,672.204 1221.073,672.929 1221.253,677.644C1221.89,694.287 1234.241,735.269 1230.225,739.288C1223.217,741.698 1220.541,745.605 1211.006,744.422L1195.018,750.73C1195.151,759.64 1201.377,782.488 1205.471,787.661C1211.407,784.981 1207.345,756.365 1207.345,756.365C1210.782,755.92 1212.69,754.264 1215.767,754.902C1215.767,754.902 1216.548,776.332 1218.043,782.002L1221.186,799.389L1225.869,800.532C1225.869,800.532 1225.731,764.983 1226.458,765.382C1226.806,765.572 1226.909,799.037 1226.909,799.037C1226.909,799.037 1232.448,801.358 1233.911,801.738L1248.051,792.129C1248.126,784.509 1259.724,772.254 1258.565,775.867C1257.024,780.668 1254.573,793.77 1255.339,794.397C1258.842,797.265 1267.817,772.315 1267.817,772.315L1260.067,756.796C1260.067,756.796 1269.431,675.978 1257.759,640.767C1259.917,636.858 1235.992,638.61 1227.857,633.85C1213.422,625.402 1160.616,600.117 1128.839,604.956C1128.839,604.956 1113.769,590.716 1100.11,586.095C1076.771,577.811 1049.245,578.37 1024.844,586.002Z" style="fill:rgb(169,112,92);"/>
                    <clipPath id="_clip9">
                        <path d="M1024.844,586.002C1013.185,637.64 1030.391,674.146 1047.157,706.535C1051.488,714.902 1064.988,722.55 1068.994,720.317C1076.634,716.061 1075.844,718.349 1075.122,689.789C1074.835,678.454 1084.818,656.041 1078.862,653.261C1079.851,647.556 1115.303,649.77 1115.303,649.77C1123.612,660.346 1210.991,675.891 1208.897,670.132C1212.211,672.204 1221.073,672.929 1221.253,677.644C1221.89,694.287 1234.241,735.269 1230.225,739.288C1223.217,741.698 1220.541,745.605 1211.006,744.422L1195.018,750.73C1195.151,759.64 1201.377,782.488 1205.471,787.661C1211.407,784.981 1207.345,756.365 1207.345,756.365C1210.782,755.92 1212.69,754.264 1215.767,754.902C1215.767,754.902 1216.548,776.332 1218.043,782.002L1221.186,799.389L1225.869,800.532C1225.869,800.532 1225.731,764.983 1226.458,765.382C1226.806,765.572 1226.909,799.037 1226.909,799.037C1226.909,799.037 1232.448,801.358 1233.911,801.738L1248.051,792.129C1248.126,784.509 1259.724,772.254 1258.565,775.867C1257.024,780.668 1254.573,793.77 1255.339,794.397C1258.842,797.265 1267.817,772.315 1267.817,772.315L1260.067,756.796C1260.067,756.796 1269.431,675.978 1257.759,640.767C1259.917,636.858 1235.992,638.61 1227.857,633.85C1213.422,625.402 1160.616,600.117 1128.839,604.956C1128.839,604.956 1113.769,590.716 1100.11,586.095C1076.771,577.811 1049.245,578.37 1024.844,586.002Z"/>
                    </clipPath>
                    <g clip-path="url(#_clip9)">
                        <g transform="matrix(1,0,0,1,4.444399,-11.589961)">
                            <path d="M1051.777,666.335C1071.368,655.287 1107.998,661.521 1077.622,672.648C1102.784,733.429 1082.272,749.024 1063.186,744.579C1049.987,741.506 1032.625,702.789 1041.482,714.167C1056.886,733.955 1055.873,703.259 1056.886,673.844C1057.049,669.112 1042.788,674.31 1043.015,673.196C1043.293,671.826 1048.297,668.066 1051.777,666.335Z" style="fill:rgb(108,61,45);"/>
                        </g>
                    </g>
                </g>
            </g>
            <g id="Cabeça" transform="matrix(2.113926,0,0,2.113926,3719.638829,40.010667)">
                <path d="M975.828,560.855C975.828,560.855 982.649,554.82 984.904,554.09C986.506,553.572 989.356,556.478 989.356,556.478C990.677,563.045 990.379,570.016 988.561,577.368C988.561,577.368 986.224,580.396 984.168,581.418C982.112,582.441 977.633,584.558 977.633,584.558L975.828,560.855Z" style="fill:rgb(169,112,92);"/>
                <g transform="matrix(0.999699,-0.02455,0.022064,0.898483,-10.307734,79.809626)">
                    <path d="M902.039,563.532C902.039,563.532 899.828,585.856 900.624,591.095C901.048,593.883 905.2,595.738 906.991,596.666C908.286,597.338 911.367,596.666 911.367,596.666L902.039,563.532Z" style="fill:rgb(147,91,72);"/>
                </g>
                <g transform="matrix(1,0,0,1,1.509076,2.397566)">
                    <path d="M897.043,544.143L911.195,598.258L932.854,626.509C940.053,630.579 951.156,631.195 958.93,626.642L973.838,609.928L976.226,583.505C976.147,575.955 975.987,568.405 975.828,560.855L967.87,553.295L963.095,529.42L948.77,528.227L938.425,537.379L897.043,544.143Z" style="fill:rgb(169,112,92);"/>
                </g>
                <g transform="matrix(1.000616,0,0,0.991725,-0.577947,5.303244)">
                    <path d="M977.735,582.306C981.259,582.593 984.11,580.945 984.11,580.945C984.19,580.995 984.24,581.673 984.282,582.722C984.41,585.883 984.478,592.409 985.156,595.22C985.618,595.346 985.64,616.415 981.018,623.917C976.593,631.1 957.749,641.13 957.489,640.899C957.489,640.899 938.595,640.423 938.143,638.556C937.876,637.451 938.012,628.396 938.143,628.408L955.372,627.803C956.982,629.145 971.204,620.191 974.043,611.697C975.365,607.741 975.641,585.59 977.735,582.306Z" style="fill:rgb(108,61,45);"/>
                </g>
                <path d="M931.868,625.223C931.868,625.223 931.149,646.94 935.418,655.486C940.193,665.045 951.954,684.277 961.503,685.454C971.053,686.63 990.948,663.808 990.948,663.808C990.948,663.808 992.01,612.465 994.131,598.656C995.149,592.028 1003.474,582.303 1003.474,582.303C996.269,584.779 984.282,582.722 984.282,582.722C983.848,582.505 985.77,615.657 980.205,624.519C977.43,628.938 962.149,638.404 959.654,638.268C958.626,638.725 936.292,641.336 938.052,627.652C938.052,627.652 932.689,625.342 931.868,625.223Z" style="fill:rgb(169,112,92);"/>
                <g transform="matrix(0.933728,0,0,1,65.578424,3.929821)">
                    <path d="M896.929,498.915C896.918,498.862 896.908,498.809 896.898,498.755C896.557,496.732 897.524,493.105 902.28,491.481C905.385,490.42 908.517,491.119 911.001,492.53C913.485,493.94 915.314,496.063 915.831,497.822L915.837,497.844C915.884,497.675 915.934,497.466 915.99,497.224C916.384,495.53 917.079,492.279 919,489.792C921.371,486.723 925.089,486.941 928.229,487.971C930.69,488.778 932.785,490.075 933.542,490.594C933.703,490.704 933.807,490.782 933.846,490.815L933.917,490.898C934.558,492.049 935.219,492.693 935.948,492.939C937.044,493.308 938.253,492.769 939.667,491.834C942.175,490.176 945.26,487.245 949.269,485.211C951.181,484.241 953.355,484.714 955.142,485.822C956.907,486.915 958.284,488.624 958.651,490.104C959.038,491.663 959.506,492.796 960.032,493.591C960.531,494.344 961.076,494.784 961.653,494.982C962.736,495.355 963.9,494.88 964.981,494.165C966.72,493.016 968.242,491.23 968.902,490.827C972.449,488.657 976.762,490.653 979.259,493.391C980.257,494.485 980.962,495.694 981.219,496.79C981.398,497.555 981.36,498.268 981.068,498.861C979.769,501.495 979.417,507.599 979.541,514.853C979.832,531.88 982.807,555.211 982.807,555.211C982.818,555.297 982.78,555.381 982.707,555.433L975.986,560.252C975.941,560.284 975.885,560.302 975.828,560.302C975.678,560.302 974.866,560.587 973.68,560.057C972.528,559.542 970.997,558.235 969.401,555.019C967.32,550.829 965.094,543.343 963.383,530.029C963.295,529.348 962.878,528.88 962.25,528.565C961.573,528.224 960.662,528.055 959.639,527.989C956.458,527.786 952.218,528.593 950.243,528.743C949.71,528.784 949.322,528.766 949.13,528.696C948.581,529.406 947.195,531.138 945.554,532.73C944.112,534.13 942.471,535.416 941.024,535.842C932.653,538.303 899.324,543.306 898.174,543.478C897.86,543.6 894.978,544.69 892.056,544.918C889.932,545.085 887.794,544.784 886.546,543.4C886.051,542.851 885.8,541.92 885.712,540.879C885.57,539.201 885.829,537.236 885.984,536.276C885.375,536.592 884.68,536.651 883.949,536.506C883.043,536.326 882.079,535.825 881.167,535.116C879.557,533.864 878.11,531.964 877.445,530.116C876.99,528.85 876.904,527.607 877.353,526.601C878.627,523.744 880.49,519.218 876.238,516.174C874.429,514.878 873.87,512.91 874.068,510.775C874.358,507.654 876.276,504.176 878.125,502.035C881.215,498.458 887.395,496.523 891.48,496.95C893.846,497.198 895.745,498.151 896.929,498.915Z"/>
                    <path d="M885.581,536.77C884.785,536.989 883.173,537.074 880.953,535.357C878.17,533.204 875.864,529.172 877.007,526.528C878.053,524.108 880.22,519.527 876.109,516.514C875.693,516.209 871.621,513.731 874.954,506.329C874.976,506.281 876.511,502.772 878.975,500.651C881.889,498.143 885.683,497.002 888.271,496.652C891.688,496.19 894.195,496.908 896.435,498.157C896.424,497.466 896.543,496.422 897.161,495.219C898.66,492.298 902.609,490.426 906.472,490.886C911.157,491.445 914.982,495.084 915.796,497.651C915.81,497.695 915.823,497.739 915.836,497.782C916.011,497.09 916.233,496.076 916.562,494.95C916.119,496.49 915.946,497.677 915.854,497.839C915.843,497.857 915.834,497.863 915.825,497.854C915.825,497.854 915.824,497.849 915.821,497.84C915.772,497.659 915.243,495.842 912.889,493.904C909.995,491.522 905.054,489.743 900.455,492.574C897.929,494.129 896.88,496.72 897.343,498.838C897.331,499.04 897.376,499.064 897.217,499.203C897.107,499.299 896.893,499.364 896.69,499.239C894.87,498.127 891.657,496.289 885.814,497.945C880.206,499.535 878.039,502.735 878.006,502.777C874.894,506.735 872.589,513.039 876.383,515.844C878.203,517.189 880.525,519.542 878.36,525.107C877.705,526.789 877.287,527.202 877.429,528.567C877.827,532.392 882.841,537.377 885.724,536.057C885.743,536.049 885.952,535.905 886.149,536.011C886.398,536.146 886.286,536.425 886.214,536.952C885.465,542.39 886.851,543.282 886.955,543.382C889.485,545.832 895.403,544.188 897.832,543.304C898.252,543.151 898.26,543.182 898.705,543.115C917.464,540.303 936.2,537.1 941.016,535.609C944.459,534.543 948.923,528.578 949,528.526C949.169,528.413 949.192,528.582 949.949,528.553C952.773,528.444 963.077,526.107 963.584,530.005C964.036,533.479 966.833,556.94 973.802,559.948C974.867,560.408 975.587,560.175 975.836,560.157C975.852,560.156 975.872,560.151 975.885,560.142C982.576,555.36 982.684,555.393 982.664,555.225C982.661,555.204 978.889,525.286 979.496,508.457C979.788,500.368 980.969,499.125 981.156,498.439C982.208,494.585 974.576,487.501 969.013,490.817C967.34,491.814 962.109,499.092 959.297,492.254C958.476,490.258 958.798,489.543 957.337,487.767C955.608,485.667 952.195,483.758 949.28,485.231C942.008,488.907 937.837,495.487 934.766,492.133C934.116,491.422 934.045,490.968 933.734,490.74C933.192,490.342 924.838,484.626 919.947,488.8C920.33,488.47 920.748,488.185 921.207,487.96C924.919,486.133 930.028,488.362 933.097,490.292C934.018,490.872 933.951,490.941 933.985,491C936.788,495.879 940.136,490.995 946.418,486.855C947.337,486.249 949.034,485.215 949.896,484.922C953.64,483.65 957.952,487.282 958.668,490.026C959.413,492.878 960.748,496.543 964.445,494.444C966.472,493.293 968.045,491.258 969.042,490.687C974.977,487.289 982.878,495.155 981.159,498.831C980.72,499.769 977.975,504.241 981.037,537.534C981.985,547.842 982.965,555.183 982.948,555.294C982.945,555.316 982.925,555.445 982.796,555.538C976.157,560.312 976.196,560.425 975.825,560.447C975.52,560.465 973.126,561.292 970.368,557.06C965.207,549.139 963.345,530.505 963.122,529.777C962.14,526.571 951.461,529.144 949.404,528.96C949.331,528.953 949.27,528.944 949.22,528.935C943.931,535.637 941.316,536.007 940.233,536.296C931.759,538.55 906.267,542.516 900.9,543.345C898.466,543.72 898.465,543.705 898.256,543.749C898.219,543.757 889.569,547.217 886.303,543.59C884.957,542.096 885.356,538.388 885.581,536.77ZM917.026,493.518C916.85,494.005 916.697,494.487 916.562,494.95C916.692,494.497 916.845,494.015 917.026,493.518ZM917.026,493.518C917.525,492.137 918.204,490.719 919.161,489.595C919.077,489.696 918.993,489.801 918.912,489.91C918.072,491.028 917.466,492.313 917.026,493.518ZM919.947,488.8C919.666,489.042 919.405,489.309 919.161,489.595C919.411,489.297 919.674,489.033 919.947,488.8Z"/>
                </g>
                <g>
                    <path d="M928.573,571.254C928.588,573.842 926.964,591.526 930.194,596.72C933.799,602.517 941.568,598.886 941.76,598.931" style="fill:none;stroke:rgb(108,61,45);stroke-width:0.79px;"/>
                    <g transform="matrix(0.987527,0.157448,-0.157448,0.987527,100.49149,-141.60848)">
                        <path d="M943.508,556.794C943.589,555.895 944.58,551.309 950.705,550.541C953.537,550.187 956.607,551.622 957.205,552.058" style="fill:none;stroke:black;stroke-width:1.97px;"/>
                    </g>
                    <g transform="matrix(1,0,0,1,1.391615,0.039401)">
                        <path d="M905.571,561.819L905.445,561.783C905.651,561.062 906.881,557.707 912.223,556.914C915.866,556.372 919.303,558.567 919.674,558.892L919.587,558.991C919.222,558.671 915.834,556.51 912.243,557.044C906.991,557.824 905.774,561.111 905.571,561.819Z" style="fill:none;stroke:black;stroke-width:1.97px;"/>
                    </g>
                    <g transform="matrix(0.997033,-0.076979,0.076979,0.997033,-40.873517,76.902835)">
                        <ellipse cx="953.629" cy="567.731" rx="1.879" ry="5.891" style="stroke:black;stroke-width:1.97px;"/>
                    </g>
                    <g transform="matrix(0.993937,-0.109949,0.109949,0.993937,-57.595573,105.221752)">
                        <ellipse cx="917.784" cy="573.599" rx="1.938" ry="5.868" style="stroke:black;stroke-width:1.97px;"/>
                    </g>
                    <path d="M928.383,608.444C927.721,599.611 937.176,605.301 941.76,605.029C948.324,604.639 954.439,599.604 955.958,601.222C968.561,614.649 933.37,621.981 928.383,608.444Z" style="fill:rgb(242,242,242);"/>
                </g>
            </g>
            <g transform="matrix(2.113926,0,0,2.113926,3719.638829,40.010667)">
                <path d="M874.016,792.336L888.796,806.976L1064.172,893.354L1074.394,905.445L1090.274,892.749L1090.274,879.005C1075.782,872.341 1057.594,870.604 1036.912,872.194C1006.507,842.861 970.024,816.567 929.301,792.393C906.917,784.463 888.339,784.145 874.016,792.336Z" style="fill:rgb(169,169,169);"/>
            </g>
            <g transform="matrix(2.113926,0,0,2.113926,3719.638829,40.010667)">
                <path d="M911.367,610.467C899.289,623.558 889.516,686.888 897.395,704.506L905.907,745.906L926.027,755.966L921.771,766.026L901.686,763.317L874.016,792.336C874.016,792.336 913.593,785.515 930.67,793.884C958.039,807.297 1038.232,872.815 1038.232,872.815C1038.232,872.815 1056.384,873.846 1065.154,874.362C1073.911,874.877 1090.274,879.005 1090.274,879.005L1080.019,780.729L1064.641,760.015L1076.537,735.073C1077.271,735.073 1071.796,705.928 1072.083,701.367C1072.184,699.75 1071.464,706.669 1068.468,711.627C1065.549,716.46 1060.395,719.348 1057.263,716.776C1017.601,684.207 1020.207,585.092 1026.999,582.303C1026.999,582.303 1003.155,580.998 1001.5,582.783C1001.5,582.783 997.042,589.826 994.563,596.246C988.008,613.219 990.351,663.096 990.351,663.096L963.171,685.498C963.171,685.498 941.758,667.439 936.086,656.142L931.822,625.407C928.242,620.673 922.115,612.008 921.933,613.103C921.933,613.103 916.383,611.66 911.367,610.467Z" style="fill:rgb(233,233,233);"/>
                <clipPath id="_clip10">
                    <path d="M911.367,610.467C899.289,623.558 889.516,686.888 897.395,704.506L905.907,745.906L926.027,755.966L921.771,766.026L901.686,763.317L874.016,792.336C874.016,792.336 913.593,785.515 930.67,793.884C958.039,807.297 1038.232,872.815 1038.232,872.815C1038.232,872.815 1056.384,873.846 1065.154,874.362C1073.911,874.877 1090.274,879.005 1090.274,879.005L1080.019,780.729L1064.641,760.015L1076.537,735.073C1077.271,735.073 1071.796,705.928 1072.083,701.367C1072.184,699.75 1071.464,706.669 1068.468,711.627C1065.549,716.46 1060.395,719.348 1057.263,716.776C1017.601,684.207 1020.207,585.092 1026.999,582.303C1026.999,582.303 1003.155,580.998 1001.5,582.783C1001.5,582.783 997.042,589.826 994.563,596.246C988.008,613.219 990.351,663.096 990.351,663.096L963.171,685.498C963.171,685.498 941.758,667.439 936.086,656.142L931.822,625.407C928.242,620.673 922.115,612.008 921.933,613.103C921.933,613.103 916.383,611.66 911.367,610.467Z"/>
                </clipPath>
                <g clip-path="url(#_clip10)">
                    <path d="M911.367,610.467C905.12,617.053 900.645,629.401 897.395,645.73C914.211,635.918 926.753,641.065 936.74,655.152L932.806,624.637L923.93,610.467L911.367,610.467Z" style="fill:rgb(169,169,169);fill-opacity:0.5;"/>
                    <path d="M957.379,753.144L974.339,753.144L1022.864,794.602L982.145,788.478L1008.731,788.478L957.379,753.144Z" style="fill:rgb(169,169,169);fill-opacity:0.5;"/>
                    <path d="M990.121,758.798L1035.584,794.602L1008.259,758.798L1019.542,778.204L990.121,758.798Z" style="fill:rgb(169,169,169);fill-opacity:0.5;"/>
                    <path d="M1035.584,681.188C1035.584,681.188 1084.997,835.714 1080.135,863.556C1075.817,888.281 1006.412,848.245 1006.412,848.245L1035.584,870.057L1090.274,879.005L1080.135,780.133L1067.65,758.798L1080.135,735.751L1072.802,698.404L1064.277,711.264L1035.584,681.188Z" style="fill:rgb(169,169,169);fill-opacity:0.53;"/>
                    <g transform="matrix(0.974314,-0.225194,0.225194,0.974314,-136.623318,223.240706)">
                        <path d="M955.837,677.551L957.691,701.402L982.145,718.718L968.256,698.704C962.108,689.793 961.086,684.214 955.837,677.551Z" style="fill:rgb(169,169,169);fill-opacity:0.5;"/>
                    </g>
                    <path d="M1000.799,581.843L1027.105,581.843L1035.998,598.723C1021.191,591.719 996.32,606.805 989.481,632.809L989.481,595.804L1000.799,581.843Z" style="fill:rgb(169,169,169);fill-opacity:0.5;"/>
                    <path d="M871.359,793.572L901.08,797.076C894.574,785.097 898.766,769.073 904.494,755.462L871.359,793.572Z" style="fill:rgb(169,169,169);fill-opacity:0.5;"/>
                </g>
            </g>
            <g id="Pernas" transform="matrix(2.113926,0,0,2.113926,3719.638829,40.010667)">
                <g id="Short-interno" serif:id="Short interno">
                    <path d="M738.732,855.465C738.732,855.465 740.513,881.005 746.84,884.535C753.167,888.064 769.404,874.935 776.694,876.64L770.812,863.495C759.319,856.559 748.399,851.448 738.732,855.465Z" style="fill:rgb(33,34,43);"/>
                    <path d="M831.242,955.457L803.325,938.432C801.176,933.918 806.869,931.518 811.127,928.834L831.242,955.457Z" style="fill:rgb(33,34,43);"/>
                    <path d="M917.866,1030.365C919.53,1039.152 925.241,1047.412 936.032,1054.374L1005.03,1091.267C1018.03,1092.906 1031.566,1092.37 1044.566,1091.267C1017.738,1063.221 987.578,1040.302 955.275,1022.294C941.846,1021.077 928.558,1023.369 917.866,1030.365Z" style="fill:rgb(33,34,43);"/>
                </g>
                <g id="Pernas1" serif:id="Pernas">
                    <path d="M771.804,865.046C754.868,876.961 724.888,898.211 720.826,918.171C717.885,936.603 721.65,952.054 733.147,964.068C733.147,964.068 760.2,993.914 777.73,1017.421C785.629,1028.011 805.697,1040.988 819.238,1060.32C840.784,1091.083 855.9,1134.028 855.9,1134.028C857.442,1132.59 862.93,1132.14 862.93,1132.14C862.93,1132.14 879.028,1149.828 883.898,1150.808C888.768,1151.787 892.227,1145.12 892.227,1145.12C889.455,1119.951 889.092,1114.398 892.227,1107.698C892.227,1107.698 870.676,1082.117 864.658,1067.958C857.84,1051.914 850.528,1009.6 850.528,1009.6C842.407,987.851 829.17,968.377 806.609,953.047C800.842,940.249 805.501,932.204 812.572,929.034L776.694,873.661L771.804,865.046Z" style="fill:rgb(169,112,92);"/>
                    <clipPath id="_clip11">
                        <path d="M771.804,865.046C754.868,876.961 724.888,898.211 720.826,918.171C717.885,936.603 721.65,952.054 733.147,964.068C733.147,964.068 760.2,993.914 777.73,1017.421C785.629,1028.011 805.697,1040.988 819.238,1060.32C840.784,1091.083 855.9,1134.028 855.9,1134.028C857.442,1132.59 862.93,1132.14 862.93,1132.14C862.93,1132.14 879.028,1149.828 883.898,1150.808C888.768,1151.787 892.227,1145.12 892.227,1145.12C889.455,1119.951 889.092,1114.398 892.227,1107.698C892.227,1107.698 870.676,1082.117 864.658,1067.958C857.84,1051.914 850.528,1009.6 850.528,1009.6C842.407,987.851 829.17,968.377 806.609,953.047C800.842,940.249 805.501,932.204 812.572,929.034L776.694,873.661L771.804,865.046Z"/>
                    </clipPath>
                    <g clip-path="url(#_clip11)">
                        <path d="M746.587,882.406C746.587,882.406 765.051,888.178 768.93,891.853C778.505,900.923 806.048,936.827 806.048,936.827L811.272,929.288L770.955,865.046C761.831,869.997 752.131,875.666 746.587,882.406Z" style="fill:rgb(110,62,46);"/>
                    </g>
                    <g transform="matrix(1,0,0,1,-1.460159,-1.35183)">
                        <path d="M940.149,1023.341C937.346,1045.162 936.325,1075.376 938.456,1096.375C942.014,1107.742 945.207,1123.119 947.12,1152.579C949.35,1151.599 948.746,1280.471 951.918,1310.303C952.631,1317.003 972.229,1324.976 972.229,1324.976C974.252,1327.507 993.801,1316.106 991.815,1306.904C990.534,1300.967 991.037,1269.377 990.822,1268.958C990.822,1268.958 1003.176,1214.78 1005.646,1194.549C1007.544,1179.006 1005.646,1147.574 1005.646,1147.574C1003.537,1137.87 1010.601,1066.215 1007.384,1061.399C997.422,1046.485 961.105,1025.094 955.231,1023.341C948.253,1021.258 940.575,1023.447 940.149,1023.341Z" style="fill:rgb(169,112,92);"/>
                        <clipPath id="_clip12">
                            <path d="M940.149,1023.341C937.346,1045.162 936.325,1075.376 938.456,1096.375C942.014,1107.742 945.207,1123.119 947.12,1152.579C949.35,1151.599 948.746,1280.471 951.918,1310.303C952.631,1317.003 972.229,1324.976 972.229,1324.976C974.252,1327.507 993.801,1316.106 991.815,1306.904C990.534,1300.967 991.037,1269.377 990.822,1268.958C990.822,1268.958 1003.176,1214.78 1005.646,1194.549C1007.544,1179.006 1005.646,1147.574 1005.646,1147.574C1003.537,1137.87 1010.601,1066.215 1007.384,1061.399C997.422,1046.485 961.105,1025.094 955.231,1023.341C948.253,1021.258 940.575,1023.447 940.149,1023.341Z"/>
                        </clipPath>
                        <g clip-path="url(#_clip12)">
                            <g transform="matrix(1,0,0,1,1.460159,1.35183)">
                                <path d="M933.09,1047.462C933.09,1047.462 943.663,1034.266 950.136,1036.313C962.418,1040.197 1009.851,1072.3 1009.851,1072.3L1012.853,1058.63L951.817,1013.626L935.855,1021.086L933.09,1047.462Z" style="fill:rgb(110,62,46);"/>
                            </g>
                        </g>
                    </g>
                </g>
                <g id="Short-externo" serif:id="Short externo">
                    <path d="M946.186,920.706C930.206,955.831 920.995,992.46 917.848,1030.437C917.848,1030.437 943.875,1017.775 955.275,1023.363C975.593,1033.323 1044.566,1091.267 1044.566,1091.267C1061.39,1027.731 1065.64,952.119 1063.925,874.321C1063.925,874.321 1062.212,873.606 1052.218,872.49C1045.311,871.718 1036.348,871.633 1029.863,865.987C996.254,836.722 928.35,784.734 915.906,790.863L892.227,805.75L870.073,820.721C825.433,826.908 774.814,839.276 738.732,855.446C739.448,854.924 768.853,856.442 771.882,867.773C778.995,894.389 831.231,955.459 831.231,955.459C831.231,955.459 910.843,925.595 946.186,920.706Z" style="fill:rgb(87,89,110);"/>
                    <path d="M870.073,820.721C901.771,854.711 1004.325,888.555 1006.778,885.489C1010.787,883.885 928.792,821.014 926.472,824.089L990.19,875.349C989.446,879.816 905.527,848.295 870.073,820.721Z" style="fill:rgb(65,67,84);"/>
                    <g transform="matrix(1,0,0,1,12.143032,13.03555)">
                        <path d="M870.073,820.721C870.073,820.721 972.136,868.491 981.666,868.491C991.195,868.491 927.251,820.721 927.251,820.721C927.251,820.721 969.276,853.202 959.746,853.202C950.216,853.202 870.073,820.721 870.073,820.721Z" style="fill:rgb(79,81,101);"/>
                    </g>
                    <clipPath id="_clip13">
                        <path d="M831.231,955.459L810.82,930.243C860.909,927.481 908.06,911.331 954.907,897.547L946.379,920.23C909.482,929.372 870.708,941.8 831.231,955.459Z"/>
                    </clipPath>
                    <g clip-path="url(#_clip13)">
                        <path d="M946.186,920.706C930.206,955.831 920.995,992.46 917.848,1030.437C917.848,1030.437 943.875,1017.775 955.275,1023.363C975.593,1033.323 1044.566,1091.267 1044.566,1091.267C1061.39,1027.731 1065.53,954.437 1063.814,876.64L1036.546,876.64C1034.876,880.536 972.433,826.347 950.998,808.424C935.283,795.284 892.227,805.75 892.227,805.75L870.073,820.721C825.433,826.908 774.814,839.276 738.732,855.446C739.448,854.924 768.853,856.442 771.882,867.773C778.995,894.389 831.231,955.459 831.231,955.459C831.231,955.459 910.843,925.595 946.186,920.706Z" style="fill:rgb(65,67,84);"/>
                    </g>
                    <clipPath id="_clip14">
                        <path d="M1064.172,875.349C1066.319,954.903 1061.312,1028.495 1044.566,1092.305C1028.569,1081.67 1013.159,1068.584 1006.778,1063.048C1044.279,1069.102 1058.17,990.565 1064.172,875.349Z"/>
                    </clipPath>
                    <g clip-path="url(#_clip14)">
                        <path d="M946.186,920.706C930.206,955.831 920.995,992.46 917.848,1030.437C917.848,1030.437 943.875,1017.775 955.275,1023.363C975.593,1033.323 1044.566,1091.267 1044.566,1091.267C1061.39,1027.731 1065.53,954.437 1063.814,876.64L1036.546,876.64C1034.876,880.536 972.433,826.347 950.998,808.424C935.283,795.284 892.227,805.75 892.227,805.75L870.073,820.721C825.433,826.908 774.814,839.276 738.732,855.446C739.448,854.924 768.853,856.442 771.882,867.773C778.995,894.389 831.231,955.459 831.231,955.459C831.231,955.459 910.843,925.595 946.186,920.706Z" style="fill:rgb(65,67,84);"/>
                    </g>
                </g>
            </g>
            <g id="Sneakers" transform="matrix(2.113926,0,0,2.113926,3719.638829,40.010667)">
                <path d="M989.563,1292.086C989.563,1292.086 1001.743,1296.826 1003.87,1301.984C1006.25,1307.756 1007.025,1322.889 1003.87,1327.1C991.868,1343.117 975.252,1329.091 979.936,1323.982C980.535,1319.501 982.471,1319.216 985.246,1315.753C986.28,1314.462 989.492,1312.284 989.563,1309.288C989.646,1305.756 989.085,1295.422 989.563,1292.086Z" style="fill:rgb(209,209,209);"/>
                <path d="M930.852,1417.333C930.852,1417.333 922.893,1438.632 925.43,1448.218C927.967,1457.804 938.303,1469.298 946.075,1474.851C953.351,1480.051 972.058,1481.54 972.058,1481.54L990.898,1479.839L1042.11,1473.77L1067.132,1489.223C1040.574,1460.539 1010.439,1427.534 1001.155,1416.405L930.852,1417.333Z" style="fill:rgb(108,181,22);fill-opacity:0.33;"/>
                <path d="M949.297,1290.383C941.404,1293.771 933.455,1324.352 942.372,1337.553C948.544,1346.689 955.552,1342.071 953.306,1342.504L956.48,1316.072C956.528,1315.976 951.422,1312.442 950.845,1310.142C949.672,1305.463 949.44,1290.061 949.297,1290.383Z" style="fill:rgb(209,209,209);"/>
                <path d="M971.317,1322.337C962.75,1322.07 955.819,1313.018 952.341,1315.136C946.964,1318.411 945.85,1322.19 945.753,1326.486C945.561,1335.009 949.435,1343.386 952.341,1342.047L947.139,1346.941C945.984,1363.582 944.829,1375.213 943.674,1387.14C943.244,1391.833 942.043,1397.554 936.05,1409.665L930.852,1416.596L930.852,1441.2C932.402,1452.241 937.734,1459.499 945.753,1464.071C956.843,1468.759 967.932,1470.589 979.021,1467.883C992.11,1456.152 1000.702,1441.611 1006.398,1425.259L1001.893,1409.665L1001.893,1378.13L1009.516,1367.734C1009.516,1367.734 1011.596,1350.638 1010.21,1344.862C1009.056,1340.054 1001.893,1329.402 1001.893,1329.402C1001.893,1329.402 993.287,1334.498 993.442,1334.247C998.108,1326.741 995.86,1306.689 985.239,1314.217C980.494,1317.581 977.211,1322.521 971.317,1322.337Z" style="fill:rgb(233,233,233);"/>
                <clipPath id="_clip15">
                    <path d="M971.317,1322.337C962.75,1322.07 955.819,1313.018 952.341,1315.136C946.964,1318.411 945.85,1322.19 945.753,1326.486C945.561,1335.009 949.435,1343.386 952.341,1342.047L947.139,1346.941C945.984,1363.582 944.829,1375.213 943.674,1387.14C943.244,1391.833 942.043,1397.554 936.05,1409.665L930.852,1416.596L930.852,1441.2C932.402,1452.241 937.734,1459.499 945.753,1464.071C956.843,1468.759 967.932,1470.589 979.021,1467.883C992.11,1456.152 1000.702,1441.611 1006.398,1425.259L1001.893,1409.665L1001.893,1378.13L1009.516,1367.734C1009.516,1367.734 1011.596,1350.638 1010.21,1344.862C1009.056,1340.054 1001.893,1329.402 1001.893,1329.402C1001.893,1329.402 993.287,1334.498 993.442,1334.247C998.108,1326.741 995.86,1306.689 985.239,1314.217C980.494,1317.581 977.211,1322.521 971.317,1322.337Z"/>
                </clipPath>
                <g clip-path="url(#_clip15)">
                    <path d="M958.823,1377.288L981.976,1377.288L979.544,1419.409C974.435,1427.695 952.699,1422.966 952.341,1419.409C951.634,1412.389 958.908,1390.491 958.823,1377.288Z" style="fill:rgb(169,169,169);"/>
                    <g transform="matrix(1,0,0,1,-1.700774,3.395612)">
                        <path d="M957.416,1350.896C956.369,1359.43 956.02,1363.99 957.416,1374.11C970.751,1376.116 977.297,1376.405 988.044,1374.11C990.089,1366.035 989.762,1359.911 988.044,1350.896C977.516,1348.028 967.285,1347.837 957.416,1350.896Z" style="fill:rgb(206,240,117);"/>
                    </g>
                    <path d="M1004.361,1333.448C1003.884,1343.412 997.796,1378.143 997.796,1378.143C997.796,1378.143 997.458,1411.549 997.796,1411.493C999.627,1414.424 989.956,1449.818 970.169,1456.783C972.672,1463.963 971.435,1465.064 970.169,1469.606C980.141,1475.193 997.258,1460.451 1007.775,1425.047L1003.827,1410.353L1003.827,1378.143L1010.21,1367.388C1011.852,1359.503 1012.332,1351.387 1010.21,1342.749L1004.361,1333.448Z" style="fill:rgb(206,240,117);"/>
                    <path d="M947.459,1452.33C947.459,1452.33 936.995,1444.919 934.587,1439.994C931.849,1434.391 931.026,1416.62 931.026,1416.62L927.909,1443.333C932.504,1456.1 939.302,1462.991 947.459,1466.261L947.459,1452.33Z" style="fill:rgb(206,240,117);"/>
                    <path d="M946.076,1464.558C946.076,1464.558 945.909,1449.74 949.506,1448.825C952.771,1447.994 967.816,1447.476 970.169,1451.021C971.704,1453.334 972.913,1467.157 971.276,1468.668C969.558,1470.253 949.609,1470.389 946.076,1464.558Z" style="fill:rgb(169,169,169);"/>
                </g>
                <path d="M908.443,1194.664C905.18,1201.53 903.051,1210.897 908.998,1219.615C915.876,1229.698 896.722,1258.483 878.022,1263.605C865.086,1267.149 837.675,1271.544 837.75,1268.685C837.992,1259.443 838.61,1245.812 840.522,1240.157C840.522,1240.157 853.728,1232.097 855.77,1223.496C858.172,1213.373 857.156,1178.585 857.156,1178.585L855.215,1159.456C854.501,1159.456 844.506,1152.526 840.799,1151.416C839.076,1150.901 852.468,1133.766 859.651,1132.01C869.835,1129.52 878.575,1149.389 884.186,1149.199C892.927,1148.901 901.223,1123.234 908.721,1122.584C916.214,1121.935 927.572,1139.495 927.572,1139.495C933.436,1147.442 924.291,1140.004 921.103,1149.199C917.915,1158.393 920.525,1169.25 908.443,1194.664Z" style="fill:rgb(233,233,233);"/>
                <clipPath id="_clip16">
                    <path d="M908.443,1194.664C905.18,1201.53 903.051,1210.897 908.998,1219.615C915.876,1229.698 896.722,1258.483 878.022,1263.605C865.086,1267.149 837.675,1271.544 837.75,1268.685C837.992,1259.443 838.61,1245.812 840.522,1240.157C840.522,1240.157 853.728,1232.097 855.77,1223.496C858.172,1213.373 857.156,1178.585 857.156,1178.585L855.215,1159.456C854.501,1159.456 844.506,1152.526 840.799,1151.416C839.076,1150.901 852.468,1133.766 859.651,1132.01C869.835,1129.52 878.575,1149.389 884.186,1149.199C892.927,1148.901 901.223,1123.234 908.721,1122.584C916.214,1121.935 927.572,1139.495 927.572,1139.495C933.436,1147.442 924.291,1140.004 921.103,1149.199C917.915,1158.393 920.525,1169.25 908.443,1194.664Z"/>
                </clipPath>
                <g clip-path="url(#_clip16)">
                    <path d="M855.139,1212.712L867.221,1212.712C867.221,1212.712 868.232,1224.772 865.342,1228.354C862.452,1231.937 850.266,1236.151 844.27,1237.169C848.042,1230.257 855.22,1220.105 855.139,1212.712Z" style="fill:rgb(169,169,169);"/>
                </g>
                <path d="M855.623,1181.609C854.838,1194.389 855.133,1217.314 855.623,1214.998C857.537,1215.234 871.77,1214.165 872.285,1207.501C872.995,1198.326 874.267,1189.357 870.073,1181.609C864.979,1179.38 855.759,1179.404 855.623,1181.609Z" style="fill:rgb(206,240,117);"/>
                <path d="M840.396,1240.157C837.09,1249.869 836.117,1259.774 837.749,1269.897C878.882,1272.106 911.78,1251.488 910.836,1221.256C910.836,1221.256 905.237,1202.387 908.783,1196.203C913.365,1188.211 937.097,1181.172 940.291,1171.69C943.378,1162.525 939.333,1147.77 932.653,1137.533C932.422,1137.179 929.776,1137.224 929.492,1137.533C925.513,1141.851 912.495,1154.513 908.783,1163.439C904.771,1173.087 896.33,1210.307 895.187,1214.433C891.339,1228.321 867.566,1241.997 867.566,1241.997C867.566,1241.997 848.888,1246.545 840.396,1240.157Z" style="fill:rgb(206,240,117);"/>
                <g transform="matrix(1,0,0,1.057704,0,-66.07716)">
                    <path d="M892.227,1145.698C890.421,1146.456 885.767,1117.113 890.843,1110.666C893.407,1107.41 900.349,1107.824 903.226,1109.557C907.236,1111.973 908.368,1126.807 906.172,1126.905L892.227,1145.698Z" style="fill:rgb(233,233,233);"/>
                </g>
                <path d="M836.974,1264.803C837.049,1265.479 837.749,1269.897 837.749,1269.897C837.749,1269.897 849.701,1270.979 854.707,1270.492C854.707,1270.492 855.73,1251.96 853.262,1248.077C850.793,1244.193 841.28,1241.905 838.45,1244.645C835.62,1247.384 836.974,1264.803 836.974,1264.803Z" style="fill:rgb(169,169,169);"/>
            </g>
            <g transform="matrix(2.113926,0,0,2.113926,3719.638829,40.010667)">
                <g transform="matrix(1.508569,0,0,1.433457,-1708.745362,-80.426303)">
                    <path d="M1349.373,790.413C1348.114,785.915 1336.474,795.101 1333.472,796.096C1323.438,799.423 1315.587,818.169 1316.146,823.432C1317.91,840.033 1329.774,858.957 1345.913,854.822C1364.447,850.074 1386.164,827.715 1377.096,824.41C1363.268,819.37 1350.61,794.831 1349.373,790.413Z" style="fill:rgb(0,194,52);"/>
                </g>
                <g transform="matrix(1,0,0,1,-2.630821,2.728318)">
                    <path d="M1345.913,796.307C1325.33,800.454 1320.607,810.264 1319.35,819.79C1317.672,832.513 1330.395,858.057 1345.913,854.822C1364.643,850.918 1378.632,833.939 1377.096,824.41C1375.144,812.299 1357.752,793.921 1345.913,796.307Z" style="fill:rgb(0,194,52);"/>
                </g>
                <g transform="matrix(1,0,0,1,-558.352861,-276.413168)">
                    <path d="M1345.913,796.307C1325.33,800.454 1320.607,810.264 1319.35,819.79C1317.672,832.513 1330.395,858.057 1345.913,854.822C1364.643,850.918 1378.632,833.939 1377.096,824.41C1375.144,812.299 1357.752,793.921 1345.913,796.307Z" style="fill:rgb(0,194,52);"/>
                </g>
                <g transform="matrix(1,0,0,1,132.146947,487.414053)">
                    <path d="M1345.913,796.307C1325.33,800.454 1320.607,810.264 1319.35,819.79C1317.672,832.513 1330.395,858.057 1345.913,854.822C1364.643,850.918 1378.632,833.939 1377.096,824.41C1375.144,812.299 1357.752,793.921 1345.913,796.307Z" style="fill:rgb(0,194,52);"/>
                </g>
                <g transform="matrix(0.743745,0,0,0.713328,-339.335838,656.625867)">
                    <path d="M1345.913,796.307C1325.33,800.454 1320.607,810.264 1319.35,819.79C1317.672,832.513 1330.395,858.057 1345.913,854.822C1364.643,850.918 1378.632,833.939 1377.096,824.41C1375.144,812.299 1357.752,793.921 1345.913,796.307Z" style="fill:rgb(0,194,52);"/>
                </g>
                <g transform="matrix(1.125649,0,0,1.121618,-658.029755,650.9146)">
                    <path d="M1361.156,801.464C1354.556,809.067 1354.217,811.03 1347.808,821.176C1364.851,810.962 1362.217,812.072 1368.553,808.134C1374.112,813.789 1376.178,818.718 1377.096,824.41C1378.632,833.939 1364.643,850.918 1345.913,854.822C1330.395,858.057 1317.672,832.513 1319.35,819.79C1320.607,810.264 1325.33,800.454 1345.913,796.307C1350.562,795.37 1356.066,797.635 1361.156,801.464Z" style="fill:rgb(0,194,52);"/>
                </g>
                <path d="M767.692,541.522C765.81,549.211 779.007,566.532 779.007,566.532C781.029,573.355 816.933,565.866 818.733,551.294C820.51,536.913 802.957,515.499 791.679,520.396C779.268,525.786 769.574,533.833 767.692,541.522Z" style="fill:rgb(189,251,116);"/>
                <g transform="matrix(0.987522,0,0,0.987029,693.417088,780.819296)">
                    <path d="M767.692,541.522C765.81,549.211 779.007,566.532 779.007,566.532C781.029,573.355 816.933,565.866 818.733,551.294C820.51,536.913 802.957,515.499 791.679,520.396C779.268,525.786 769.574,533.833 767.692,541.522Z" style="fill:rgb(189,251,116);"/>
                </g>
                <g transform="matrix(0.70497,0,0,0.727899,98.906385,849.294094)">
                    <path d="M767.692,541.522C765.81,549.211 779.007,566.532 779.007,566.532C781.029,573.355 816.933,565.866 818.733,551.294C820.51,536.913 802.957,515.499 791.679,520.396C779.268,525.786 769.574,533.833 767.692,541.522Z" style="fill:rgb(189,251,116);"/>
                </g>
                <g transform="matrix(0.899099,0,0,1.053626,33.753576,-65.065403)">
                    <path d="M326.679,1061.902C330.315,1070.36 344.968,1088.521 362.527,1103.684C362.527,1103.684 345.439,1129.6 336.141,1134.664C320.425,1143.223 300.498,1139.667 289.129,1127.779C277.586,1115.709 274.853,1095.105 292.462,1077.351C301.197,1068.305 313.836,1063.318 326.679,1061.902Z" style="fill:rgb(189,251,116);"/>
                </g>
            </g>
        </g>
    </g>
    <defs>
        <radialGradient id="_Radial1" cx="0" cy="0" r="1" gradientUnits="userSpaceOnUse" gradientTransform="matrix(332.671327,-991.332482,992.439835,332.300137,805.911745,1439.083334)"><stop offset="0" style="stop-color:rgb(156,253,91);stop-opacity:1"/><stop offset="0.4" style="stop-color:rgb(145,250,89);stop-opacity:1"/><stop offset="0.54" style="stop-color:rgb(119,242,84);stop-opacity:1"/><stop offset="0.66" style="stop-color:rgb(91,233,78);stop-opacity:1"/><stop offset="1" style="stop-color:rgb(0,158,27);stop-opacity:1"/></radialGradient>
    </defs>
</svg>
