<?xml version="1.0" encoding="UTF-8" standalone="no"?>
<!DOCTYPE svg PUBLIC "-//W3C//DTD SVG 1.1//EN" "http://www.w3.org/Graphics/SVG/1.1/DTD/svg11.dtd">
<svg width="100%" height="100%" viewBox="0 0 3508 4961" version="1.1" xmlns="http://www.w3.org/2000/svg" xmlns:xlink="http://www.w3.org/1999/xlink" xml:space="preserve" xmlns:serif="http://www.serif.com/" style="fill-rule:evenodd;clip-rule:evenodd;stroke-linecap:round;stroke-linejoin:round;stroke-miterlimit:1.5;">
    <g transform="matrix(1,0,0,1,-14882.351747,0)">
        <g id="Prancheta5" transform="matrix(1,0,0,1,142.194267,-5425.77836)">
            <rect x="14740.157" y="5425.778" width="3507.874" height="4960.63" style="fill:none;"/>
            <g>
                <g transform="matrix(1,0,0,1,-142.194267,5409.275987)">
                    <path d="M15551.613,1693.486L15388.937,1494.596C15683.871,1303.484 16010.36,1214.929 16384.167,1280.16C16811.43,1153.509 17236.722,1029.187 17444.565,1161.85C17849.556,1153.558 18003.302,1377.184 17895.619,1842.13C17872.261,2170.521 17726.431,2271.647 17604.236,2402.365C18027.072,2580.881 18397.651,3235.616 18176.942,3370.244C18113.02,3409.235 17651.19,3201.602 17518.508,3370.244C17318.907,3538.609 17141.65,3608.619 16981.486,3520.646C16527.919,3347.052 16088.284,3087.274 15773.443,3528.04C15590.503,3523.766 15495.046,3414.512 15411.12,3291.421C14919.608,3252.075 15056.871,3090.355 15572.376,2677.749C15598.757,2594.746 15437.088,2496.559 15635.756,2312.181C15334.481,2207.69 15434.415,1974.177 15551.613,1693.486Z" style="fill:url(#_Linear1);"/>
                </g>
                <g id="Confetti" transform="matrix(1.117768,0,0,1.117768,14699.569469,5332.225959)">
                    <g transform="matrix(1,0,0,1,1651.17262,-354.578736)">
                        <path d="M820.245,2411.398L869.821,2437.644C893.744,2515.736 890.614,2554.292 860.1,2572.763L823.162,2555.265C835.335,2507.31 831.408,2459.354 820.245,2411.398Z" style="fill:rgb(184,239,56);"/>
                    </g>
                    <g transform="matrix(1,0,0,1,-180.668587,-344.237549)">
                        <path d="M456.495,2890.824C500.608,2917.75 543.235,2929.066 584.031,2921.153C594.203,2988.697 626.59,3043.965 689.855,3071.69L673.462,3075.129L669.708,3090.312C649.063,3089.088 633.654,3080.933 620.581,3069.686C539.47,3050.217 485.762,2989.096 456.495,2890.824Z" style="fill:rgb(184,239,56);"/>
                    </g>
                    <path d="M2362.037,794.378L2433.424,797.416C2487.648,869.854 2498.602,941.211 2469.877,1011.576L2371.15,993.35C2371.15,993.35 2387.924,958.089 2386.934,936.483C2385.416,903.321 2362.037,794.378 2362.037,794.378Z" style="fill:rgb(184,239,56);"/>
                    <g transform="matrix(1,0,0,1,-1407.730503,763.921359)">
                        <path d="M2285.426,1390.199L2339.679,1439.531C2337.96,1455.767 2319.968,1482.193 2319.968,1482.193C2319.968,1482.193 2291.069,1525.867 2269.386,1549.254C2287.483,1568.039 2296.153,1590.594 2301.283,1614.565L2243.566,1629.754C2240.934,1590.894 2222.018,1547.794 2196.056,1511.526L2285.426,1390.199Z" style="fill:rgb(184,239,56);"/>
                    </g>
                    <g transform="matrix(1,0,0,1,1260.810252,-228.217277)">
                        <path d="M402.258,1405.642L344.644,1492.623C363.613,1530.351 398.829,1550.878 446.002,1558.744L509.186,1493.129C431.944,1475.614 396.55,1446.382 402.258,1405.642Z" style="fill:rgb(184,239,56);"/>
                    </g>
                    <g transform="matrix(0.487942,-0.429674,0.429674,0.487942,1923.812169,1685.266342)">
                        <path d="M402.258,1405.642L344.644,1492.623C363.613,1530.351 398.829,1550.878 446.002,1558.744L509.186,1493.129C431.944,1475.614 396.55,1446.382 402.258,1405.642Z" style="fill:rgb(184,239,56);"/>
                    </g>
                    <g transform="matrix(-0.149142,-0.632822,0.632822,-0.149142,-232.78447,1789.952087)">
                        <path d="M402.258,1405.642L344.644,1492.623C363.613,1530.351 398.829,1550.878 446.002,1558.744L509.186,1493.129C431.944,1475.614 396.55,1446.382 402.258,1405.642Z" style="fill:rgb(184,239,56);"/>
                    </g>
                    <g transform="matrix(0.426363,1.323687,-1.323687,0.426363,4506.40606,-516.600832)">
                        <path d="M1753.937,3003.887L1827.133,3044.374L1841.573,3083.458C1862.514,3100.9 1885.891,3115.093 1914.478,3122.341C1950.426,3166.824 1948.679,3207.742 1921.769,3246.28L1872.67,3210.323L1879.064,3197.016L1790.539,3146.642C1751.11,3108.41 1741.522,3051.84 1753.937,3003.887Z" style="fill:rgb(184,239,56);"/>
                    </g>
                    <g transform="matrix(0.917376,0.398022,-0.398022,0.917376,-765.424903,-1518.106318)">
                        <path d="M2826.355,1590.364L2918.702,1562.417L2912.627,1659.624C2997.964,1669.772 3064.263,1693.991 3075.022,1759.262L2986.747,1829.737L2980.672,1765.337C2865.374,1741.739 2846.218,1739.399 2825.14,1690.002L2826.355,1590.364Z" style="fill:rgb(184,239,56);"/>
                    </g>
                    <g transform="matrix(0.89464,0,0,0.89464,-13150.822242,-4770.422419)">
                        <g transform="matrix(0.843904,0.008835,-0.008307,0.793413,3230.355733,6130.058455)">
                            <path d="M16859.117,1244.271L16967.391,1376.313L16859.117,1508.355L16750.842,1376.313L16859.117,1244.271Z" style="fill:rgb(65,66,64);"/>
                        </g>
                        <g transform="matrix(0.843904,0.008835,-0.008307,0.793413,1754.164382,5880.447561)">
                            <path d="M16859.117,1244.271L16967.391,1376.313L16859.117,1508.355L16750.842,1376.313L16859.117,1244.271Z" style="fill:rgb(65,66,64);"/>
                        </g>
                        <g transform="matrix(0.618093,0.006471,-0.006084,0.581113,5466.694286,7657.839855)">
                            <path d="M16859.117,1244.271L16967.391,1376.313L16859.117,1508.355L16750.842,1376.313L16859.117,1244.271Z" style="fill:rgb(65,66,64);"/>
                        </g>
                        <g transform="matrix(0.44242,0.004632,-0.004355,0.41595,9223.151821,6070.760048)">
                            <path d="M16859.117,1244.271L16967.391,1376.313L16859.117,1508.355L16750.842,1376.313L16859.117,1244.271Z" style="fill:rgb(65,66,64);"/>
                        </g>
                        <g transform="matrix(0.465756,0.004876,-0.004585,0.43789,7568.332482,7279.029249)">
                            <path d="M16859.117,1244.271L16967.391,1376.313L16859.117,1508.355L16750.842,1376.313L16859.117,1244.271Z" style="fill:rgb(65,66,64);"/>
                        </g>
                        <g transform="matrix(1,0,0,1,-142.194267,5409.275987)">
                            <circle cx="15760.341" cy="2811.438" r="9.553" style="fill:rgb(68,98,13);"/>
                        </g>
                        <g transform="matrix(1,0,0,1,-142.194267,5409.275987)">
                            <circle cx="17481.404" cy="2311.323" r="20.548" style="fill:rgb(68,98,13);"/>
                        </g>
                        <g transform="matrix(1,0,0,1,-142.194267,5409.275987)">
                            <circle cx="17874.043" cy="2020.89" r="11.942" style="fill:rgb(68,98,13);"/>
                        </g>
                        <g transform="matrix(1,0,0,1,-142.194267,5409.275987)">
                            <circle cx="15229.091" cy="2478.744" r="18.073" style="fill:rgb(193,250,86);"/>
                        </g>
                        <g transform="matrix(1,0,0,1,-142.194267,5409.275987)">
                            <circle cx="15928.721" cy="1494.256" r="20.301" style="fill:rgb(193,250,86);"/>
                        </g>
                        <g transform="matrix(1,0,0,1,-142.194267,5409.275987)">
                            <circle cx="16448.19" cy="1650.694" r="19.107" style="fill:rgb(193,250,86);"/>
                        </g>
                        <g transform="matrix(1,0,0,1,-142.194267,5409.275987)">
                            <circle cx="17321.61" cy="2355.034" r="23.163" style="fill:rgb(193,250,86);"/>
                        </g>
                        <g transform="matrix(1,0,0,1,-142.194267,5409.275987)">
                            <circle cx="17366.629" cy="2164.552" r="21.856" style="fill:rgb(193,250,86);"/>
                        </g>
                        <g transform="matrix(1,0,0,1,-142.194267,5409.275987)">
                            <circle cx="17267.399" cy="1681.742" r="31.049" style="fill:rgb(193,250,86);"/>
                        </g>
                        <g transform="matrix(1,0,0,1,-142.194267,5409.275987)">
                            <circle cx="15596.738" cy="3335.684" r="17.913" style="fill:rgb(68,98,13);"/>
                        </g>
                        <g transform="matrix(1,0,0,1,-142.194267,5409.275987)">
                            <circle cx="15522.699" cy="2879.507" r="15.524" style="fill:rgb(193,250,86);"/>
                        </g>
                        <g transform="matrix(1,0,0,1,-142.194267,5409.275987)">
                            <circle cx="15333.145" cy="2460.67" r="36.147" style="fill:rgb(193,250,86);"/>
                        </g>
                    </g>
                </g>
                <g transform="matrix(2.109732,0.133095,-0.133095,2.109732,15218.154101,4843.506024)">
                    <g transform="matrix(1.046651,0.051345,-0.046306,0.943937,41.466771,38.008408)">
                        <path d="M664.839,1034.948L1174.387,1588.093C1176.864,1590.635 1178.066,1594.156 1177.66,1597.683C1177.255,1601.209 1175.286,1604.365 1172.297,1606.28L885.524,1786.458C880.658,1789.575 874.251,1788.713 870.382,1784.422L363.911,1234.172C361.389,1231.374 360.352,1227.541 361.121,1223.853C361.889,1220.165 364.371,1217.065 367.801,1215.508L651.496,1032.435C656.029,1030.377 661.365,1031.382 664.839,1034.948Z" style="fill:rgb(54,54,60);"/>
                    </g>
                    <g transform="matrix(1.007264,-0.008894,0.008904,1.008389,-15.448317,-11.624041)">
                        <path d="M684.834,1066.061L1176.38,1612.195C1177.168,1613.071 1177.498,1614.266 1177.271,1615.421C1177.044,1616.577 1176.286,1617.558 1175.225,1618.071L871.782,1764.766C870.281,1765.492 868.48,1765.14 867.363,1763.903L380.214,1224.175C379.481,1223.363 379.167,1222.256 379.365,1221.181C379.562,1220.105 380.249,1219.181 381.223,1218.682L680.332,1065.234C681.847,1064.457 683.696,1064.796 684.834,1066.061Z" style="fill:url(#_Radial2);"/>
                    </g>
                    <g transform="matrix(0.472115,-0.029784,0.029784,0.472115,-7328.975977,-1833.433748)">
                        <g transform="matrix(1,0,0,1,-142.194267,5372.780746)">
                            <path d="M16820.504,2171.5L16384.167,2380.138L16488.848,2533.313L16981.486,2272.18L16820.504,2171.5Z" style="fill:rgb(227,248,177);"/>
                        </g>
                        <g transform="matrix(0.968369,-0,-0,0.88239,386.93865,5720.006679)">
                            <path d="M16516.594,2533.313L17019.372,2303.871L17111.039,2431.324L16662.01,2690.154L16516.594,2533.313Z" style="fill:rgb(227,248,177);"/>
                        </g>
                        <g transform="matrix(1,0,0,1,-113.061876,5385.046186)">
                            <path d="M16993.601,2622.882L17146.687,2533.313L17228.476,2598.061L17046.907,2693.067L16993.601,2622.882Z" style="fill:rgb(227,248,177);"/>
                        </g>
                        <g transform="matrix(0.892006,-0.11195,0.113713,0.906053,1367.260965,7662.792258)">
                            <path d="M16785.984,2702.759L16972.4,2622.882L17046.907,2702.759L16862.138,2800.188L16785.984,2702.759Z" style="fill:rgb(227,248,177);"/>
                        </g>
                    </g>
                    <g transform="matrix(1.01074,0,0,1,-8.690496,-9.493314)">
                        <path d="M367.199,1223.291C367.199,1223.291 367.199,1250.114 367.199,1258.044C367.199,1259.448 367.722,1260.8 368.663,1261.832C397.282,1293.198 836.268,1774.326 875.904,1817.767C877.592,1819.617 880.296,1820.098 882.507,1818.942C915.809,1801.533 1160.625,1673.547 1188.713,1658.864C1190.352,1658.007 1191.46,1656.379 1191.666,1654.526C1192.743,1644.854 1196.083,1614.853 1196.083,1614.853L878.762,1776.809L367.199,1223.291Z" style="fill:rgb(41,41,45);"/>
                    </g>
                    <g transform="matrix(0.494824,0,0,0.448851,277.357925,626.0887)">
                        <ellipse cx="562.026" cy="1162.255" rx="18.288" ry="17.541" style="fill:rgb(54,54,60);"/>
                    </g>
                    <g transform="matrix(0.817377,0.00514,-0.00506,0.804622,197.060367,330.789821)">
                        <path d="M1026.458,1730.19C1024.442,1731.27 1022.029,1731.259 1020.023,1730.16C1018.018,1729.06 1016.683,1727.018 1016.465,1724.713C1016.398,1723.942 1016.096,1723.294 1015.57,1722.768C1014.003,1721.211 1013.268,1718.984 1013.592,1716.781C1013.916,1714.579 1015.26,1712.668 1017.207,1711.644C1039.673,1699.82 1074.493,1681.497 1093.902,1671.285C1095.855,1670.257 1098.175,1670.247 1100.137,1671.257C1102.098,1672.268 1103.462,1674.176 1103.8,1676.384C1103.937,1677.284 1104.266,1678.082 1104.814,1678.757C1106.122,1680.366 1106.646,1682.487 1106.243,1684.532C1105.84,1686.577 1104.552,1688.329 1102.736,1689.303C1082.639,1700.084 1048.763,1718.238 1026.458,1730.19Z" style="fill:rgb(22,22,24);"/>
                    </g>
                </g>
                <g transform="matrix(0.999996,-0.002896,0.002896,0.999996,-175.516535,101.83443)">
                    <g transform="matrix(1,0,0,1,-304.165481,5532.667995)">
                        <path d="M17319.158,1166.622C17312.814,1166.696 17307.662,1171.767 17307.488,1178.108C17305.894,1236.111 17298.674,1498.924 17297.038,1558.466C17296.951,1561.634 17298.141,1564.704 17300.34,1566.986C17302.539,1569.268 17305.563,1570.571 17308.731,1570.601C17356.122,1571.057 17527.412,1572.704 17527.412,1572.704C17527.412,1572.704 17499.736,1636.256 17482.011,1676.959C17479.969,1681.649 17481.177,1687.12 17485.005,1690.513C17488.832,1693.906 17494.409,1694.45 17498.82,1691.86C17564.215,1653.463 17709.313,1568.267 17709.313,1568.267C17709.313,1568.267 17987.115,1575.3 18048.074,1576.844C18054.566,1577.008 18059.972,1571.901 18060.178,1565.411C18062.088,1505.252 18070.77,1231.762 18072.724,1170.209C18072.827,1166.989 18071.609,1163.867 18069.355,1161.567C18067.1,1159.266 18064.003,1157.986 18060.782,1158.024C17970.011,1159.076 17406.463,1165.61 17319.158,1166.622Z" style="fill:rgb(246,255,236);stroke:rgb(164,201,74);stroke-width:2.08px;"/>
                    </g>
                    <g transform="matrix(1,0,0,1,-142.194267,5409.275987)">
                        <path d="M16694.044,2626.542C16697.885,2624.113 16702.78,2624.103 16706.631,2626.518C16710.482,2628.932 16712.605,2633.342 16712.092,2637.858C16708.807,2666.77 16703.783,2710.975 16703.783,2710.975C16703.783,2710.975 16794.32,2713.943 16827.281,2715.024C16830.415,2715.127 16833.378,2716.471 16835.52,2718.76C16837.661,2721.05 16838.805,2724.097 16838.698,2727.23C16836.515,2791.484 16826.092,3098.213 16823.955,3161.101C16823.741,3167.412 16818.599,3172.439 16812.284,3172.51C16723.389,3173.509 16137.1,3180.096 16045.798,3181.122C16042.643,3181.157 16039.605,3179.929 16037.361,3177.71C16035.117,3175.491 16033.855,3172.467 16033.855,3169.312C16033.855,3103.529 16033.855,2786.008 16033.855,2720.568C16033.855,2717.435 16035.099,2714.431 16037.314,2712.216C16039.529,2710.001 16042.533,2708.757 16045.666,2708.757C16123.876,2708.757 16564.03,2708.757 16564.03,2708.757C16564.03,2708.757 16652.657,2652.713 16694.044,2626.542Z" style="fill:rgb(246,255,236);stroke:rgb(164,201,74);stroke-width:2.08px;"/>
                    </g>
                    <g transform="matrix(1,0,0,1,-142.194267,5409.275987)">
                        <path d="M16465.172,2852.904L16425.164,2880.817L16406.555,2857.556C16372.894,2820.169 16346.863,2847.661 16357.94,2875.99C16364.156,2956.187 16435.705,2997.255 16499.132,3037.652C16516.945,3043.902 16524.125,3034.202 16527.045,3018.113C16527.045,3018.113 16506.266,2990.433 16512.158,2979.907C16518.051,2969.382 16562.401,2954.96 16562.401,2954.96C16562.401,2954.96 16602.772,2999.092 16611.574,3027.94C16590.254,3067.395 16550.328,3148.464 16501.924,3122.32C16442.778,3090.376 16291.379,2971.317 16281.413,2834.819C16300.768,2793.35 16348.888,2768.348 16393.064,2756.663C16424.045,2776.011 16454.04,2808.745 16465.172,2852.904Z" style="fill:rgb(125,170,17);"/>
                    </g>
                </g>
                <g transform="matrix(1.166052,0,0,1.10567,-3015.053095,5194.151424)">
                    <circle cx="17026.979" cy="2048.683" r="200.908" style="fill:rgb(127,172,19);"/>
                    <clipPath id="_clip3">
                        <circle cx="17026.979" cy="2048.683" r="200.908"/>
                    </clipPath>
                    <g clip-path="url(#_clip3)">
                        <g transform="matrix(0.857595,0,0,0.904429,2585.693215,-4697.743072)">
                            <g transform="matrix(1,0,0,1,-142.194267,5409.275987)">
                                <path d="M16924.716,1808.619C16925.508,1862.162 16909.871,2147.87 17043.706,2121.631C17089.879,2112.579 17231.863,2010.74 17109.562,1813.77" style="fill:none;stroke:rgb(234,255,184);stroke-width:15.83px;"/>
                            </g>
                            <g transform="matrix(1,0,0,1,-142.194267,5409.275987)">
                                <path d="M16814.443,1889.475C16760.883,1981.174 16878.595,2094.489 16949.323,2137.813C17026.92,2185.345 17177.373,2186.732 17231.43,2082.969" style="fill:none;stroke:rgb(234,255,184);stroke-width:15.83px;"/>
                            </g>
                            <g transform="matrix(1,0,0,1,-142.194267,5409.275987)">
                                <path d="M16747.216,2206.208C16766.766,2192.564 16873.164,2147.696 16971.574,2186.069C17051.67,2217.3 17043.209,2291.272 17041.975,2302.056" style="fill:none;stroke:rgb(234,255,184);stroke-width:15.83px;"/>
                            </g>
                            <g transform="matrix(1,0,0,1,-126.480664,5418.034477)">
                                <path d="M17027.108,1760.281C17082.196,1867.787 17084.236,1940.701 17010.028,2087.598C16991.419,2124.434 16947.408,2221.174 16818.988,2293.298" style="fill:none;stroke:rgb(234,255,184);stroke-width:15.83px;"/>
                            </g>
                        </g>
                    </g>
                </g>
                <g transform="matrix(0.744858,-0.214975,0.214975,0.744858,2609.922722,5270.058169)">
                    <g transform="matrix(1,0,0,1,-142.194267,5409.275987)">
                        <path d="M15141.695,1729.878L15138.856,2236.475L15397.244,1950.435L15141.695,1729.878Z" style="fill:rgb(164,201,74);"/>
                    </g>
                    <g transform="matrix(1,0,0,1,-142.194267,5409.275987)">
                        <path d="M16132.657,1693.486L15906.257,1915.247L16132.657,2236.475L16132.657,1693.486Z" style="fill:rgb(164,201,74);"/>
                    </g>
                    <g transform="matrix(1,0,0,1,-142.194267,5409.275987)">
                        <path d="M15138.856,2236.475L16132.657,2236.475L15922.539,1897.13L15635.756,2169.573L15397.244,1931.529L15138.856,2236.475Z" style="fill:rgb(181,224,77);"/>
                    </g>
                    <g transform="matrix(1,0,0,1,-142.194267,5409.275987)">
                        <path d="M16132.657,1693.486L15635.756,2185.928L15138.856,1729.878L16132.657,1693.486Z" style="fill:rgb(208,239,134);"/>
                    </g>
                </g>
            </g>
        </g>
    </g>
    <defs>
        <linearGradient id="_Linear1" x1="0" y1="0" x2="1" y2="0" gradientUnits="userSpaceOnUse" gradientTransform="matrix(57.464047,3336.065153,-2699.511137,46.499342,16578.824708,931.408999)"><stop offset="0" style="stop-color:rgb(193,250,86);stop-opacity:0"/><stop offset="1" style="stop-color:rgb(193,250,86);stop-opacity:1"/></linearGradient>
        <radialGradient id="_Radial2" cx="0" cy="0" r="1" gradientUnits="userSpaceOnUse" gradientTransform="matrix(332.671327,-991.332482,992.439835,332.300137,805.911745,1439.083334)"><stop offset="0" style="stop-color:rgb(156,253,91);stop-opacity:1"/><stop offset="0.4" style="stop-color:rgb(145,250,89);stop-opacity:1"/><stop offset="0.54" style="stop-color:rgb(119,242,84);stop-opacity:1"/><stop offset="0.66" style="stop-color:rgb(91,233,78);stop-opacity:1"/><stop offset="1" style="stop-color:rgb(0,158,27);stop-opacity:1"/></radialGradient>
    </defs>
</svg>
